<?xml version="1.0" encoding="UTF-8" standalone="no"?>
<!-- Created with Inkscape (http://www.inkscape.org/) -->

<svg
   version="1.1"
   id="svg2"
   width="929.81335"
   height="578.78668"
   viewBox="0 0 929.81335 578.78668"
   sodipodi:docname="backend1.eps"
   xmlns:inkscape="http://www.inkscape.org/namespaces/inkscape"
   xmlns:sodipodi="http://sodipodi.sourceforge.net/DTD/sodipodi-0.dtd"
   xmlns="http://www.w3.org/2000/svg"
   xmlns:svg="http://www.w3.org/2000/svg">
  <defs
     id="defs6" />
  <sodipodi:namedview
     id="namedview4"
     pagecolor="#ffffff"
     bordercolor="#000000"
     borderopacity="0.25"
     inkscape:showpageshadow="2"
     inkscape:pageopacity="0.0"
     inkscape:pagecheckerboard="0"
     inkscape:deskcolor="#d1d1d1" />
  <g
     id="g8"
     inkscape:groupmode="layer"
     inkscape:label="ink_ext_XXXXXX"
     transform="matrix(1.3333333,0,0,-1.3333333,0,578.78667)">
    <g
       id="g10"
       transform="scale(0.1)">
      <path
         d="m 3334.18,898.281 c -50.8,-61.051 -42.49,-151.722 18.56,-202.511 61.05,-50.801 151.72,-42.481 202.51,18.57 50.79,61.039 42.49,151.711 -18.56,202.512 -61.05,50.789 -151.72,42.48 -202.51,-18.571 m -84.43,172.789 c 24.15,17.14 50.19,30.71 77.36,40.64 l 10.61,80.33 133.48,12.23 25.05,-77.05 c 28.52,-4.83 56.6,-13.43 83.46,-25.9 l 64.27,49.28 103.04,-85.75 -36.76,-72.151 c 17.15,-24.148 30.72,-50.199 40.65,-77.367 l 80.32,-10.613 12.24,-133.489 -77.06,-25.039 c -4.83,-28.519 -13.44,-56.601 -25.9,-83.453 l 49.27,-64.289 -85.73,-103.039 -72.16,36.77 c -24.15,-17.149 -50.2,-30.711 -77.37,-40.649 l -10.61,-80.332 -133.48,-12.23 -25.05,77.062 c -28.52,4.828 -56.59,13.438 -83.45,25.899 l -64.28,-49.27 -103.04,85.738 36.76,72.153 c -17.14,24.148 -30.72,50.191 -40.65,77.371 l -80.32,10.609 -12.24,133.481 77.06,25.047 c 4.83,28.511 13.45,56.601 25.91,83.453 l -49.28,64.278 85.73,103.04 72.17,-36.76"
         style="fill:#e7e8e5;fill-opacity:1;fill-rule:nonzero;stroke:none"
         id="path12" />
      <path
         d="m 4094.88,524.391 c -31.85,-38.282 -26.64,-95.129 11.64,-126.969 38.28,-31.852 95.12,-26.641 126.97,11.637 31.84,38.273 26.63,95.121 -11.64,126.972 -38.28,31.84 -95.12,26.629 -126.97,-11.64 z m -52.93,108.32 c 15.14,10.75 31.47,19.258 48.5,25.488 l 6.65,50.36 83.69,7.671 15.7,-48.308 c 17.88,-3.031 35.49,-8.422 52.33,-16.242 l 40.3,30.902 64.6,-53.762 -23.05,-45.238 c 10.75,-15.141 19.26,-31.473 25.49,-48.512 l 50.35,-6.648 7.68,-83.692 -48.31,-15.699 c -3.03,-17.883 -8.43,-35.48 -16.24,-52.32 l 30.89,-40.301 -53.75,-64.609 -45.24,23.051 c -15.14,-10.75 -31.48,-19.25 -48.51,-25.481 l -6.65,-50.359 -83.69,-7.672 -15.7,48.308 c -17.88,3.032 -35.49,8.434 -52.33,16.243 l -40.3,-30.891 -64.6,53.75 23.05,45.238 c -10.75,15.141 -19.26,31.473 -25.49,48.504 l -50.36,6.66 -7.67,83.688 48.31,15.699 c 3.03,17.883 8.43,35.481 16.25,52.32 l -30.9,40.301 53.75,64.61 45.25,-23.059"
         style="fill:#e7e8e5;fill-opacity:1;fill-rule:nonzero;stroke:none"
         id="path14" />
      <path
         d="m 1810.09,3523.02 c -36.97,-44.43 -30.92,-110.42 13.51,-147.39 44.44,-36.97 110.43,-30.92 147.4,13.51 36.96,44.43 30.92,110.43 -13.52,147.4 -44.43,36.96 -110.42,30.91 -147.39,-13.52 z m -61.44,125.76 c 17.57,12.47 36.53,22.35 56.3,29.58 l 7.72,58.47 97.15,8.9 18.23,-56.08 c 20.76,-3.52 41.2,-9.78 60.74,-18.86 l 46.79,35.87 74.99,-62.41 -26.75,-52.51 c 12.48,-17.58 22.35,-36.54 29.58,-56.31 l 58.46,-7.72 8.9,-97.16 -56.08,-18.23 c -3.51,-20.75 -9.78,-41.18 -18.85,-60.73 l 35.86,-46.79 -62.4,-74.99 -52.52,26.75 c -17.57,-12.48 -36.53,-22.35 -56.31,-29.58 l -7.72,-58.46 -97.15,-8.91 -18.23,56.09 c -20.75,3.51 -41.19,9.78 -60.74,18.85 l -46.78,-35.86 -75,62.4 26.76,52.51 c -12.48,17.58 -22.36,36.54 -29.59,56.31 l -58.46,7.73 -8.9,97.15 56.08,18.23 c 3.52,20.75 9.79,41.19 18.86,60.74 l -35.87,46.78 62.4,75 52.53,-26.76"
         style="fill:#dadbd8;fill-opacity:1;fill-rule:nonzero;stroke:none"
         id="path16" />
      <path
         d="m 3648.93,4119.3 c -36.79,-44.22 -30.77,-109.89 13.45,-146.68 44.22,-36.8 109.9,-30.78 146.69,13.45 36.79,44.22 30.77,109.89 -13.45,146.68 -44.22,36.8 -109.89,30.77 -146.69,-13.45 z m -61.15,125.16 c 17.49,12.42 36.35,22.25 56.03,29.44 l 7.69,58.19 96.69,8.86 18.14,-55.81 c 20.66,-3.5 41,-9.73 60.45,-18.76 l 46.56,35.69 74.64,-62.11 -26.63,-52.26 c 12.42,-17.49 22.25,-36.37 29.44,-56.05 l 58.18,-7.68 8.87,-96.69 -55.82,-18.14 c -3.5,-20.66 -9.73,-41 -18.76,-60.45 l 35.69,-46.56 -62.1,-74.64 -52.27,26.63 c -17.49,-12.42 -36.36,-22.24 -56.04,-29.44 l -7.69,-58.19 -96.69,-8.86 -18.14,55.82 c -20.65,3.5 -40.99,9.73 -60.45,18.76 l -46.56,-35.69 -74.63,62.11 26.62,52.26 c -12.41,17.49 -22.25,36.36 -29.44,56.04 l -58.18,7.68 -8.86,96.69 55.81,18.15 c 3.5,20.65 9.74,40.99 18.77,60.44 l -35.7,46.56 62.1,74.64 52.28,-26.63"
         style="fill:#f3f2f1;fill-opacity:1;fill-rule:nonzero;stroke:none"
         id="path18" />
      <path
         d="m 4515.83,4037.79 c -20.93,-25.15 -17.51,-62.51 7.65,-83.44 25.15,-20.93 62.51,-17.5 83.44,7.65 20.93,25.16 17.5,62.51 -7.65,83.44 -25.16,20.93 -62.51,17.51 -83.44,-7.65 z m -34.79,71.19 c 9.95,7.07 20.68,12.66 31.88,16.75 l 4.37,33.1 55,5.04 10.32,-31.74 c 11.75,-2 23.32,-5.54 34.38,-10.68 l 26.49,20.3 42.45,-35.32 -15.14,-29.73 c 7.06,-9.95 12.65,-20.69 16.75,-31.88 l 33.09,-4.37 5.04,-55 -31.75,-10.32 c -1.99,-11.75 -5.53,-23.33 -10.67,-34.39 l 20.3,-26.49 -35.32,-42.45 -29.73,15.15 c -9.95,-7.07 -20.69,-12.66 -31.88,-16.75 l -4.38,-33.1 -54.99,-5.04 -10.32,31.75 c -11.75,1.99 -23.32,5.54 -34.39,10.67 l -26.48,-20.3 -42.46,35.33 15.15,29.73 c -7.07,9.95 -12.66,20.68 -16.75,31.88 l -33.1,4.37 -5.04,55 31.75,10.32 c 1.99,11.75 5.54,23.32 10.67,34.38 l -20.3,26.49 35.33,42.45 29.73,-15.15"
         style="fill:#f3f2f1;fill-opacity:1;fill-rule:nonzero;stroke:none"
         id="path20" />
      <path
         d="m 1283.02,2409.69 c -34.1,-40.98 -28.52,-101.84 12.46,-135.93 40.98,-34.1 101.84,-28.52 135.93,12.46 34.09,40.98 28.52,101.84 -12.46,135.93 -40.98,34.1 -101.84,28.52 -135.93,-12.46 z m -56.67,115.98 c 16.21,11.51 33.69,20.61 51.92,27.28 l 7.13,53.92 89.6,8.21 16.8,-51.72 c 19.15,-3.24 38,-9.02 56.03,-17.38 l 43.14,33.07 69.17,-57.55 -24.68,-48.43 c 11.51,-16.21 20.62,-33.7 27.28,-51.94 l 53.92,-7.12 8.21,-89.6 -51.72,-16.81 c -3.24,-19.14 -9.02,-37.99 -17.39,-56.01 l 33.07,-43.15 -57.54,-69.17 -48.44,24.68 c -16.2,-11.51 -33.69,-20.61 -51.93,-27.28 l -7.12,-53.92 -89.6,-8.21 -16.81,51.72 c -19.14,3.24 -37.99,9.02 -56.02,17.39 l -43.14,-33.08 -69.17,57.55 24.68,48.44 c -11.51,16.21 -20.62,33.69 -27.29,51.93 l -53.91,7.12 -8.22,89.6 51.73,16.81 c 3.24,19.14 9.02,37.99 17.39,56.02 l -33.08,43.14 57.55,69.17 48.44,-24.68"
         style="fill:#dadbd8;fill-opacity:1;fill-rule:nonzero;stroke:none"
         id="path22" />
      <path
         d="M 474.371,3245.7 H 121.238 c -24.4021,0 -44.1872,19.78 -44.1872,44.18 v 488.79 c 0,24.4 19.7851,44.18 44.1872,44.18 h 223.957 l 173.364,-178.68 v -354.29 c 0,-24.4 -19.782,-44.18 -44.188,-44.18"
         style="fill:#e7e8e5;fill-opacity:1;fill-rule:nonzero;stroke:none"
         id="path24" />
      <path
         d="M 461.344,3245.7 H 134.266 c -31.598,0 -57.2152,25.61 -57.2152,57.21 v 117.91 H 518.559 v -117.91 c 0,-31.6 -25.618,-57.21 -57.215,-57.21"
         style="fill:#dadbd8;fill-opacity:1;fill-rule:nonzero;stroke:none"
         id="path26" />
      <path
         d="m 233.52,3307.86 11.113,13.33 c 4.687,-6.3 9.871,-9.5 16.047,-9.5 8.019,0 12.218,4.81 12.218,14.31 v 41.11 h -30.367 v 16.05 h 50.242 v -56.05 c 0,-21.35 -10.738,-31.84 -31.109,-31.84 -11.601,0 -21.848,4.44 -28.144,12.59"
         style="fill:#fafaf9;fill-opacity:1;fill-rule:nonzero;stroke:none"
         id="path28" />
      <path
         d="m 304.719,3302.92 6.422,13.83 c 5.922,-3.83 14.933,-6.43 23.082,-6.43 8.886,0 12.222,2.35 12.222,6.06 0,10.86 -40.121,-0.25 -40.121,26.29 0,12.59 11.36,21.48 30.739,21.48 9.132,0 19.257,-2.1 25.55,-5.81 l -6.418,-13.7 c -6.543,3.71 -13.086,4.94 -19.132,4.94 -8.641,0 -12.344,-2.71 -12.344,-6.17 0,-11.36 40.117,-0.37 40.117,-26.54 0,-12.34 -11.481,-21.11 -31.356,-21.11 -11.23,0 -22.585,3.09 -28.761,7.16"
         style="fill:#fafaf9;fill-opacity:1;fill-rule:nonzero;stroke:none"
         id="path30" />
      <path
         d="m 170.594,3512.73 13.844,16.23 c 9.07,-12.88 20.765,-19.8 34.847,-19.8 18.856,0 28.645,11.45 28.645,33.89 v 93.8 h -60.391 v 20.77 h 84.02 v -113.38 c 0,-37.23 -18.141,-55.61 -52.274,-55.61 -19.808,0 -37.949,8.59 -48.691,24.1"
         style="fill:#fafaf9;fill-opacity:1;fill-rule:nonzero;stroke:none"
         id="path32" />
      <path
         d="m 300.941,3503.91 9.547,18.14 c 10.742,-7.64 27.926,-13.13 44.395,-13.13 21.242,0 30.078,6.44 30.078,17.18 0,28.41 -79.961,3.82 -79.961,54.19 0,22.67 20.285,37.94 52.75,37.94 16.465,0 35.086,-4.29 46.063,-11.45 l -9.786,-18.14 c -11.457,7.4 -24.105,10.02 -36.519,10.02 -20.047,0 -29.836,-7.39 -29.836,-17.42 0,-29.83 80.199,-5.49 80.199,-54.66 0,-22.92 -21.004,-37.47 -54.66,-37.47 -21,0 -41.77,6.44 -52.27,14.8"
         style="fill:#fafaf9;fill-opacity:1;fill-rule:nonzero;stroke:none"
         id="path34" />
      <path
         d="m 518.559,3644.17 -132.274,0.02 c -22.695,0.01 -41.09,18.4 -41.09,41.1 v 137.56 l 173.364,-178.68"
         style="fill:#eeeeec;fill-opacity:1;fill-rule:nonzero;stroke:none"
         id="path36" />
      <path
         d="m 347,3673.22 c 0,0 -1.738,-33.36 36.242,-44.34 1.43,-0.41 2.891,-0.72 4.352,-0.98 17.269,-3.08 130.965,-23.31 130.965,-20.7 0,2.83 0,36.97 0,36.97 H 386.285 c 0,0 -33.023,1.13 -39.285,29.05"
         style="fill:#dadbd8;fill-opacity:1;fill-rule:nonzero;stroke:none"
         id="path38" />
      <path
         d="M 1085.67,3530.56 H 649.391 c -30.153,0 -54.59,24.44 -54.59,54.59 v 603.87 c 0,30.14 24.437,54.59 54.59,54.59 h 276.687 l 214.182,-220.76 v -437.7 c 0,-30.15 -24.44,-54.59 -54.59,-54.59"
         style="fill:#e7e8e5;fill-opacity:1;fill-rule:nonzero;stroke:none"
         id="path40" />
      <path
         d="M 1075.47,3530.56 H 659.586 c -35.781,0 -64.785,29.01 -64.785,64.79 v 139.17 c 0,6.84 5.547,12.39 12.387,12.39 h 520.682 c 6.84,0 12.38,-5.55 12.38,-12.39 v -139.17 c 0,-35.78 -29,-64.79 -64.78,-64.79"
         style="fill:#dadbd8;fill-opacity:1;fill-rule:nonzero;stroke:none"
         id="path42" />
      <path
         d="m 1140.26,4022.85 -163.42,0.03 c -28.035,0 -50.762,22.73 -50.762,50.77 v 169.96 l 214.182,-220.76"
         style="fill:#ececea;fill-opacity:1;fill-rule:nonzero;stroke:none"
         id="path44" />
      <path
         d="m 928.305,4058.74 c 0,0 -2.149,-41.22 44.777,-54.77 1.762,-0.51 3.566,-0.89 5.371,-1.21 21.34,-3.82 161.797,-28.8 161.797,-25.58 0,3.49 0,45.67 0,45.67 H 976.84 c 0,0 -40.801,1.4 -48.535,35.89"
         style="fill:#dadbd8;fill-opacity:1;fill-rule:nonzero;stroke:none"
         id="path46" />
      <path
         d="m 750.941,3652.65 c 0,25.57 19.641,43.87 46.051,43.87 14.668,0 26.906,-5.33 34.906,-15.04 l -12.601,-11.63 c -5.695,6.55 -12.848,9.94 -21.328,9.94 -15.875,0 -27.149,-11.15 -27.149,-27.14 0,-16 11.274,-27.15 27.149,-27.15 8.48,0 15.633,3.39 21.328,10.06 l 12.601,-11.63 c -8,-9.82 -20.238,-15.15 -35.023,-15.15 -26.293,0 -45.934,18.29 -45.934,43.87"
         style="fill:#fafaf9;fill-opacity:1;fill-rule:nonzero;stroke:none"
         id="path48" />
      <path
         d="m 837.668,3618.59 6.668,14.79 c 7.152,-5.21 17.809,-8.85 27.992,-8.85 11.637,0 16.36,3.88 16.36,9.09 0,15.88 -49.321,4.97 -49.321,36.47 0,14.43 11.637,26.43 35.75,26.43 10.668,0 21.571,-2.54 29.446,-7.52 l -6.055,-14.91 c -7.875,4.5 -15.996,6.67 -23.508,6.67 -11.637,0 -16.117,-4.36 -16.117,-9.69 0,-15.63 49.316,-4.86 49.316,-36 0,-14.18 -11.754,-26.29 -35.992,-26.29 -13.445,0 -27.027,4 -34.539,9.81"
         style="fill:#fafaf9;fill-opacity:1;fill-rule:nonzero;stroke:none"
         id="path50" />
      <path
         d="m 914.953,3618.59 6.66,14.79 c 7.153,-5.21 17.821,-8.85 28,-8.85 11.637,0 16.364,3.88 16.364,9.09 0,15.88 -49.332,4.97 -49.332,36.47 0,14.43 11.636,26.43 35.753,26.43 10.665,0 21.575,-2.54 29.454,-7.52 l -6.067,-14.91 c -7.875,4.5 -15.996,6.67 -23.512,6.67 -11.632,0 -16.113,-4.36 -16.113,-9.69 0,-15.63 49.324,-4.86 49.324,-36 0,-14.18 -11.754,-26.29 -35.992,-26.29 -13.457,0 -27.023,4 -34.539,9.81"
         style="fill:#fafaf9;fill-opacity:1;fill-rule:nonzero;stroke:none"
         id="path52" />
      <path
         d="m 778.648,3927.19 c 8.965,-2.73 13.059,-8.38 13.059,-21.82 v -31.19 c 0,-9.15 4.684,-14.42 14.227,-14.42 h 3.507 v -23.77 h -11.296 c -24.368,0 -36.84,12.47 -36.84,34.89 v 35.26 c 0,6.24 -3.309,9.17 -8.571,9.17 h -6.433 v 23.77 h 6.433 c 5.262,0 8.571,2.92 8.571,9.16 v 35.28 c 0,22.41 12.472,34.88 36.84,34.88 h 11.296 v -23.77 h -3.507 c -9.543,0 -14.227,-5.27 -14.227,-14.43 v -31.18 c 0,-13.45 -4.094,-19.1 -13.059,-21.83"
         style="fill:#fafaf9;fill-opacity:1;fill-rule:nonzero;stroke:none"
         id="path54" />
      <path
         d="m 988.75,3939.08 v -23.77 h -6.434 c -5.257,0 -8.566,-2.93 -8.566,-9.17 v -35.26 c 0,-22.42 -12.477,-34.89 -36.84,-34.89 h -11.297 v 23.77 h 3.504 c 9.547,0 14.227,5.27 14.227,14.42 v 31.19 c 0,13.44 4.094,19.09 13.058,21.82 -8.964,2.73 -13.058,8.38 -13.058,21.83 v 31.18 c 0,9.16 -4.68,14.43 -14.227,14.43 h -3.504 v 23.77 h 11.297 c 24.363,0 36.84,-12.47 36.84,-34.88 v -35.28 c 0,-6.24 3.309,-9.16 8.566,-9.16 h 6.434"
         style="fill:#fafaf9;fill-opacity:1;fill-rule:nonzero;stroke:none"
         id="path56" />
      <path
         d="M 6973.62,2.60938 C 6973.62,1.17188 5412.4,0 3486.98,0 1560.89,0 0,1.17188 0,2.60938 c 0,1.42968 1560.89,2.60156 3486.98,2.60156 1925.42,0 3486.64,-1.17188 3486.64,-2.60156"
         style="fill:#17282f;fill-opacity:1;fill-rule:nonzero;stroke:none"
         id="path58" />
      <path
         d="M 4856.14,885.422 H 1449.12 c -50.56,0 -91.55,40.988 -91.55,91.547 V 3271.88 c 0,53.56 43.42,96.98 96.98,96.98 h 3428.32 c 53.56,0 96.98,-43.42 96.98,-96.98 V 1009.13 c 0,-68.321 -55.39,-123.708 -123.71,-123.708"
         style="fill:#17282f;fill-opacity:1;fill-rule:nonzero;stroke:none"
         id="path60" />
      <path
         d="m 2075.44,2956.97 h -255.48 v 55.71 h 255.48 v -55.71"
         style="fill:#33535f;fill-opacity:1;fill-rule:nonzero;stroke:none"
         id="path62" />
      <path
         d="m 1947.7,2707.44 h -127.74 v 55.71 h 127.74 v -55.71"
         style="fill:#f2575d;fill-opacity:1;fill-rule:nonzero;stroke:none"
         id="path64" />
      <path
         d="m 2095.96,2581.94 h -179.87 v 55.71 h 179.87 v -55.71"
         style="fill:#33535f;fill-opacity:1;fill-rule:nonzero;stroke:none"
         id="path66" />
      <path
         d="m 2229.37,2581.94 h -104.79 v 55.71 h 104.79 v -55.71"
         style="fill:#33535f;fill-opacity:1;fill-rule:nonzero;stroke:none"
         id="path68" />
      <path
         d="m 3169.07,2581.94 h -215.54 v 55.71 h 215.54 v -55.71"
         style="fill:#33535f;fill-opacity:1;fill-rule:nonzero;stroke:none"
         id="path70" />
      <path
         d="m 3799.02,2459.6 h -364.14 v 55.71 h 364.14 v -55.71"
         style="fill:#33535f;fill-opacity:1;fill-rule:nonzero;stroke:none"
         id="path72" />
      <path
         d="m 4360.75,2581.94 h -174.86 v 55.71 h 174.86 v -55.71"
         style="fill:#33535f;fill-opacity:1;fill-rule:nonzero;stroke:none"
         id="path74" />
      <path
         d="m 4765.98,2581.94 h -351.59 v 55.71 h 351.59 v -55.71"
         style="fill:#33535f;fill-opacity:1;fill-rule:nonzero;stroke:none"
         id="path76" />
      <path
         d="m 2095.96,2459.6 h -179.87 v 55.71 h 179.87 v -55.71"
         style="fill:#33535f;fill-opacity:1;fill-rule:nonzero;stroke:none"
         id="path78" />
      <path
         d="m 1985.45,2337.58 h -179.88 v 55.71 h 179.88 v -55.71"
         style="fill:#f2575d;fill-opacity:1;fill-rule:nonzero;stroke:none"
         id="path80" />
      <path
         d="m 1985.45,2215.56 h -84.04 v 55.71 h 84.04 v -55.71"
         style="fill:#33535f;fill-opacity:1;fill-rule:nonzero;stroke:none"
         id="path82" />
      <path
         d="m 2293.95,1958.5 h -84.04 v 55.71 h 84.04 v -55.71"
         style="fill:#33535f;fill-opacity:1;fill-rule:nonzero;stroke:none"
         id="path84" />
      <path
         d="m 3365.94,1494.07 h 164.18 v 55.7109 h -164.18 z"
         style="fill:#33535f;fill-opacity:1;fill-rule:nonzero;stroke:none"
         id="path86" />
      <path
         d="m 4045.2,1494.07 h 402.262 v 55.7109 H 4045.2 Z"
         style="fill:#33535f;fill-opacity:1;fill-rule:nonzero;stroke:none"
         id="path88" />
      <path
         d="m 2911.92,1615.97 h -164.19 v 55.72 h 164.19 v -55.72"
         style="fill:#dadbd8;fill-opacity:1;fill-rule:nonzero;stroke:none"
         id="path90" />
      <path
         d="m 2316.96,1720.6 h -164.19 v 55.71 h 164.19 v -55.71"
         style="fill:#33535f;fill-opacity:1;fill-rule:nonzero;stroke:none"
         id="path92" />
      <path
         d="m 3072.97,1494.07 h 258.902 v 55.7109 H 3072.97 Z"
         style="fill:#33535f;fill-opacity:1;fill-rule:nonzero;stroke:none"
         id="path94" />
      <path
         d="m 2037.78,2091.26 h -136.37 v 55.72 h 136.37 v -55.72"
         style="fill:#33535f;fill-opacity:1;fill-rule:nonzero;stroke:none"
         id="path96" />
      <path
         d="m 2154.38,1956.41 h -252.97 v 55.72 h 252.97 v -55.72"
         style="fill:#33535f;fill-opacity:1;fill-rule:nonzero;stroke:none"
         id="path98" />
      <path
         d="m 2271.53,1853.17 h -370.12 v 55.71 h 370.12 v -55.71"
         style="fill:#33535f;fill-opacity:1;fill-rule:nonzero;stroke:none"
         id="path100" />
      <path
         d="m 2942.11,1853.17 h -370.12 v 55.71 h 370.12 v -55.71"
         style="fill:#33535f;fill-opacity:1;fill-rule:nonzero;stroke:none"
         id="path102" />
      <path
         d="m 2669.2,1615.97 h -519.68 v 55.72 h 519.68 v -55.72"
         style="fill:#33535f;fill-opacity:1;fill-rule:nonzero;stroke:none"
         id="path104" />
      <path
         d="m 3028.52,1494.06 h -879 v 55.72 h 879 v -55.72"
         style="fill:#33535f;fill-opacity:1;fill-rule:nonzero;stroke:none"
         id="path106" />
      <path
         d="m 2762.59,1372.16 h -879 v 55.71 h 879 v -55.71"
         style="fill:#33535f;fill-opacity:1;fill-rule:nonzero;stroke:none"
         id="path108" />
      <path
         d="m 2532.65,1853.17 h -222.04 v 55.71 h 222.04 v -55.71"
         style="fill:#33535f;fill-opacity:1;fill-rule:nonzero;stroke:none"
         id="path110" />
      <path
         d="m 2247.73,2215.56 h -229.11 v 55.71 h 229.11 v -55.71"
         style="fill:#33535f;fill-opacity:1;fill-rule:nonzero;stroke:none"
         id="path112" />
      <path
         d="m 2298.21,2091.24 h -229.12 v 55.72 h 229.12 v -55.72"
         style="fill:#33535f;fill-opacity:1;fill-rule:nonzero;stroke:none"
         id="path114" />
      <path
         d="m 3185.9,2091.24 h -606.66 v 55.72 h 606.66 v -55.72"
         style="fill:#33535f;fill-opacity:1;fill-rule:nonzero;stroke:none"
         id="path116" />
      <path
         d="m 3903.11,2091.24 h -700.69 v 55.72 h 700.69 v -55.72"
         style="fill:#33535f;fill-opacity:1;fill-rule:nonzero;stroke:none"
         id="path118" />
      <path
         d="m 2525.51,2091.24 h -189.63 v 55.72 h 189.63 v -55.72"
         style="fill:#33535f;fill-opacity:1;fill-rule:nonzero;stroke:none"
         id="path120" />
      <path
         d="m 2579.48,2215.56 h -300.35 v 55.71 h 300.35 v -55.71"
         style="fill:#33535f;fill-opacity:1;fill-rule:nonzero;stroke:none"
         id="path122" />
      <path
         d="m 2779.81,2215.56 h -167.19 v 55.71 h 167.19 v -55.71"
         style="fill:#dadbd8;fill-opacity:1;fill-rule:nonzero;stroke:none"
         id="path124" />
      <path
         d="m 2312.1,2459.6 h -187.52 v 55.71 h 187.52 v -55.71"
         style="fill:#33535f;fill-opacity:1;fill-rule:nonzero;stroke:none"
         id="path126" />
      <path
         d="m 3365.39,2459.6 h -925.9 v 55.71 h 925.9 v -55.71"
         style="fill:#33535f;fill-opacity:1;fill-rule:nonzero;stroke:none"
         id="path128" />
      <path
         d="m 4404.79,2091.24 h -437.8 v 55.72 h 437.8 v -55.72"
         style="fill:#33535f;fill-opacity:1;fill-rule:nonzero;stroke:none"
         id="path130" />
      <path
         d="m 3572.76,1494.07 h 437.809 v 55.7109 H 3572.76 Z"
         style="fill:#33535f;fill-opacity:1;fill-rule:nonzero;stroke:none"
         id="path132" />
      <path
         d="m 4117.79,2581.94 h -912.08 v 55.71 h 912.08 v -55.71"
         style="fill:#33535f;fill-opacity:1;fill-rule:nonzero;stroke:none"
         id="path134" />
      <path
         d="m 2896.84,2581.94 h -634.71 v 55.71 h 634.71 v -55.71"
         style="fill:#33535f;fill-opacity:1;fill-rule:nonzero;stroke:none"
         id="path136" />
      <path
         d="m 2247.3,2838.85 h -427.34 v 55.71 h 427.34 v -55.71"
         style="fill:#33535f;fill-opacity:1;fill-rule:nonzero;stroke:none"
         id="path138" />
      <path
         d="m 2875.09,2838.85 h -585.14 v 55.71 h 585.14 v -55.71"
         style="fill:#33535f;fill-opacity:1;fill-rule:nonzero;stroke:none"
         id="path140" />
      <path
         d="m 2303.47,2956.97 h -188.12 v 55.71 h 188.12 v -55.71"
         style="fill:#dadbd8;fill-opacity:1;fill-rule:nonzero;stroke:none"
         id="path142" />
      <path
         d="m 1624.94,2956.97 h -53.95 v 55.71 h 53.95 v -55.71"
         style="fill:#33535f;fill-opacity:1;fill-rule:nonzero;stroke:none"
         id="path144" />
      <path
         d="m 1624.94,2835.06 h -53.95 v 55.71 h 53.95 v -55.71"
         style="fill:#33535f;fill-opacity:1;fill-rule:nonzero;stroke:none"
         id="path146" />
      <path
         d="m 1624.94,2713.15 h -53.95 v 55.71 h 53.95 v -55.71"
         style="fill:#33535f;fill-opacity:1;fill-rule:nonzero;stroke:none"
         id="path148" />
      <path
         d="m 1624.94,2591.24 h -53.95 v 55.71 h 53.95 v -55.71"
         style="fill:#33535f;fill-opacity:1;fill-rule:nonzero;stroke:none"
         id="path150" />
      <path
         d="m 1624.94,2469.33 h -53.95 v 55.72 h 53.95 v -55.72"
         style="fill:#33535f;fill-opacity:1;fill-rule:nonzero;stroke:none"
         id="path152" />
      <path
         d="m 1624.94,2347.42 h -53.95 v 55.72 h 53.95 v -55.72"
         style="fill:#33535f;fill-opacity:1;fill-rule:nonzero;stroke:none"
         id="path154" />
      <path
         d="m 1624.94,2225.52 h -53.95 v 55.71 h 53.95 v -55.71"
         style="fill:#33535f;fill-opacity:1;fill-rule:nonzero;stroke:none"
         id="path156" />
      <path
         d="m 1624.94,2103.61 h -53.95 v 55.71 h 53.95 v -55.71"
         style="fill:#33535f;fill-opacity:1;fill-rule:nonzero;stroke:none"
         id="path158" />
      <path
         d="m 1624.94,1981.7 h -53.95 v 55.71 h 53.95 v -55.71"
         style="fill:#33535f;fill-opacity:1;fill-rule:nonzero;stroke:none"
         id="path160" />
      <path
         d="m 2273.33,1108.81 h -84.04 v 55.71 h 84.04 v -55.71"
         style="fill:#dadbd8;fill-opacity:1;fill-rule:nonzero;stroke:none"
         id="path162" />
      <path
         d="m 2138.2,1108.81 h -252.97 v 55.71 h 252.97 v -55.71"
         style="fill:#f2575d;fill-opacity:1;fill-rule:nonzero;stroke:none"
         id="path164" />
      <path
         d="m 1624.94,1114.99 h -53.95 v 55.71 h 53.95 v -55.71"
         style="fill:#33535f;fill-opacity:1;fill-rule:nonzero;stroke:none"
         id="path166" />
      <path
         d="m 1624.94,1859.79 h -53.95 v 55.71 h 53.95 v -55.71"
         style="fill:#33535f;fill-opacity:1;fill-rule:nonzero;stroke:none"
         id="path168" />
      <path
         d="m 1624.94,1737.88 h -53.95 v 55.71 h 53.95 v -55.71"
         style="fill:#33535f;fill-opacity:1;fill-rule:nonzero;stroke:none"
         id="path170" />
      <path
         d="m 1624.94,1615.97 h -53.95 v 55.72 h 53.95 v -55.72"
         style="fill:#33535f;fill-opacity:1;fill-rule:nonzero;stroke:none"
         id="path172" />
      <path
         d="m 1624.94,1494.06 h -53.95 v 55.72 h 53.95 v -55.72"
         style="fill:#33535f;fill-opacity:1;fill-rule:nonzero;stroke:none"
         id="path174" />
      <path
         d="m 1624.94,1372.16 h -53.95 v 55.71 h 53.95 v -55.71"
         style="fill:#33535f;fill-opacity:1;fill-rule:nonzero;stroke:none"
         id="path176" />
      <path
         d="m 2139.84,1243.87 h -256.25 v 55.71 h 256.25 v -55.71"
         style="fill:#33535f;fill-opacity:1;fill-rule:nonzero;stroke:none"
         id="path178" />
      <path
         d="m 2768.96,1243.87 h -579.67 v 55.71 h 579.67 v -55.71"
         style="fill:#33535f;fill-opacity:1;fill-rule:nonzero;stroke:none"
         id="path180" />
      <path
         d="m 1624.94,1243.87 h -53.95 v 55.71 h 53.95 v -55.71"
         style="fill:#33535f;fill-opacity:1;fill-rule:nonzero;stroke:none"
         id="path182" />
      <path
         d="m 3134.6,2839.21 h -188.11 v 55.71 h 188.11 v -55.71"
         style="fill:#dadbd8;fill-opacity:1;fill-rule:nonzero;stroke:none"
         id="path184" />
      <path
         d="m 1597.97,3208.24 c 0,-21.13 -17.14,-38.27 -38.27,-38.27 -21.14,0 -38.28,17.14 -38.28,38.27 0,21.14 17.14,38.28 38.28,38.28 21.13,0 38.27,-17.14 38.27,-38.28"
         style="fill:#33535f;fill-opacity:1;fill-rule:nonzero;stroke:none"
         id="path186" />
      <path
         d="m 1704.19,3208.24 c 0,-21.13 -17.14,-38.27 -38.27,-38.27 -21.14,0 -38.28,17.14 -38.28,38.27 0,21.14 17.14,38.28 38.28,38.28 21.13,0 38.27,-17.14 38.27,-38.28"
         style="fill:#33535f;fill-opacity:1;fill-rule:nonzero;stroke:none"
         id="path188" />
      <path
         d="m 1810.41,3208.24 c 0,-21.13 -17.14,-38.27 -38.28,-38.27 -21.13,0 -38.27,17.14 -38.27,38.27 0,21.14 17.14,38.28 38.27,38.28 21.14,0 38.28,-17.14 38.28,-38.28"
         style="fill:#33535f;fill-opacity:1;fill-rule:nonzero;stroke:none"
         id="path190" />
      <path
         d="M 4661.61,1016.4 H 3297.73 c -39.97,0 -72.37,32.4 -72.37,72.37 v 405.3 h 106.51 v 55.71 h -106.51 v 258.88 c 0,39.97 32.4,72.36 72.37,72.36 h 1363.88 c 39.96,0 72.36,-32.39 72.36,-72.36 v -719.89 c 0,-39.97 -32.4,-72.37 -72.36,-72.37 m -616.41,533.38 v -55.71 h 402.26 v 55.71 H 4045.2 m -472.44,0 v -55.71 h 437.81 v 55.71 h -437.81 m -206.82,0 v -55.71 h 164.18 v 55.71 h -164.18"
         style="fill:#0f191d;fill-opacity:1;fill-rule:nonzero;stroke:none"
         id="path192" />
      <path
         d="m 3365.94,1494.07 h 164.18 v 55.7109 h -164.18 z"
         style="fill:#20353d;fill-opacity:1;fill-rule:nonzero;stroke:none"
         id="path194" />
      <path
         d="m 4045.2,1494.07 h 402.262 v 55.7109 H 4045.2 Z"
         style="fill:#20353d;fill-opacity:1;fill-rule:nonzero;stroke:none"
         id="path196" />
      <path
         d="m 3225.36,1494.07 h 106.512 v 55.7109 H 3225.36 Z"
         style="fill:#20353d;fill-opacity:1;fill-rule:nonzero;stroke:none"
         id="path198" />
      <path
         d="m 3572.76,1494.07 h 437.809 v 55.7109 H 3572.76 Z"
         style="fill:#20353d;fill-opacity:1;fill-rule:nonzero;stroke:none"
         id="path200" />
      <path
         d="M 4796.03,1108.81 H 3376.31 c -24.55,0 -44.44,19.9 -44.44,44.44 v 775.74 c 0,24.55 19.89,44.44 44.44,44.44 h 1419.72 c 24.55,0 44.45,-19.89 44.45,-44.44 v -775.74 c 0,-24.54 -19.9,-44.44 -44.45,-44.44"
         style="fill:#f2575d;fill-opacity:1;fill-rule:nonzero;stroke:none"
         id="path202" />
      <path
         d="m 3896,1503.39 -41.89,104.24 -41.87,-104.24 z m 26.99,-67.94 h -137.75 l -25.59,-63.29 h -94.01 l 143.8,325.75 h 90.75 l 144.25,-325.75 h -95.86 l -25.59,63.29"
         style="fill:#ffffff;fill-opacity:1;fill-rule:nonzero;stroke:none"
         id="path204" />
      <path
         d="m 4256.65,1542.24 c 9.61,8.23 14.42,19.93 14.42,35.14 0,15.2 -4.81,26.99 -14.42,35.37 -9.62,8.38 -23.9,12.56 -42.81,12.56 h -51.19 v -95.39 h 51.19 c 18.91,0 33.19,4.1 42.81,12.32 z m 39.55,141.01 c 21.72,-9.77 38.47,-23.73 50.26,-41.88 11.79,-18.15 17.69,-39.49 17.69,-63.99 0,-24.51 -5.9,-45.76 -17.69,-63.75 -11.79,-18 -28.54,-31.88 -50.26,-41.65 -21.72,-9.78 -47.31,-14.66 -76.78,-14.66 h -56.77 v -85.16 h -92.14 v 325.75 h 148.91 c 29.47,0 55.06,-4.89 76.78,-14.66"
         style="fill:#ffffff;fill-opacity:1;fill-rule:nonzero;stroke:none"
         id="path206" />
      <path
         d="m 4408.83,1697.91 h 92.14 v -325.75 h -92.14 v 325.75"
         style="fill:#ffffff;fill-opacity:1;fill-rule:nonzero;stroke:none"
         id="path208" />
      <path
         d="m 1720.28,3028.58 c 1.44,0 2.6,-479.57 2.6,-1071.01 0,-591.65 -1.16,-1071.109 -2.6,-1071.109 -1.44,0 -2.6,479.459 -2.6,1071.109 0,591.44 1.16,1071.01 2.6,1071.01"
         style="fill:#33535f;fill-opacity:1;fill-rule:nonzero;stroke:none"
         id="path210" />
      <path
         d="m 2870.79,717.082 c 0.09,0 0.17,-1.441 0.26,-4.25 0.06,-3.051 0.15,-7.184 0.26,-12.473 0.11,-11.23 0.28,-27.339 0.49,-47.961 0.2,-41.906 0.48,-102.109 0.83,-176.378 0.09,-37.25 0.2,-78.028 0.31,-121.801 0.03,-10.938 0.05,-22.078 0.07,-33.387 -0.17,-11.352 0.56,-22.672 -0.69,-34.711 -2.74,-23.781 -15.93,-46.969 -36.46,-61.82 -10.2,-7.449 -22.13,-12.86 -34.83,-15.461 -12.88,-2.699 -25.85,-1.598 -38.61,-1.848 -25.77,-0.023 -52.08,-0.051 -78.87,-0.07 -53.57,-0.012 -109.03,-0.031 -165.84,-0.051 -227.2,0.301 -432.85,0.57 -582.01,0.758 -74.27,0.351 -134.46,0.633 -176.37,0.832 -20.61,0.211 -36.72,0.371 -47.95,0.488 -5.29,0.11 -9.42,0.192 -12.47,0.262 -2.81,0.09 -4.25,0.168 -4.25,0.258 0,0.09 1.44,0.183 4.25,0.273 3.05,0.059 7.18,0.149 12.47,0.258 11.23,0.109 27.34,0.281 47.95,0.492 41.91,0.188 102.1,0.477 176.37,0.821 149.16,0.199 354.81,0.468 582.01,0.769 56.81,-0.023 112.27,-0.043 165.84,-0.062 26.79,-0.02 53.1,-0.04 78.87,-0.059 12.93,0.211 25.7,-0.852 37.64,1.668 12.01,2.441 23.3,7.531 32.98,14.551 19.48,14.019 32.06,35.949 34.73,58.5 1.23,11.172 0.59,22.902 0.79,34.152 0.02,11.309 0.04,22.449 0.07,33.387 0.11,43.773 0.22,84.551 0.31,121.801 0.35,74.269 0.64,134.472 0.83,176.378 0.21,20.622 0.38,36.731 0.49,47.961 0.11,5.289 0.2,9.422 0.26,12.473 0.09,2.809 0.18,4.25 0.27,4.25"
         style="fill:#f2575d;fill-opacity:1;fill-rule:nonzero;stroke:none"
         id="path212" />
      <path
         d="m 2905.65,751.949 c 0,-19.258 -15.61,-34.867 -34.86,-34.867 -19.26,0 -34.87,15.609 -34.87,34.867 0,19.262 15.61,34.871 34.87,34.871 19.25,0 34.86,-15.609 34.86,-34.871"
         style="fill:#f2575d;fill-opacity:1;fill-rule:nonzero;stroke:none"
         id="path214" />
      <path
         d="m 1730.64,214.961 c 0,-19.262 -15.61,-34.871 -34.87,-34.871 -19.26,0 -34.87,15.609 -34.87,34.871 0,19.258 15.61,34.871 34.87,34.871 19.26,0 34.87,-15.613 34.87,-34.871"
         style="fill:#f2575d;fill-opacity:1;fill-rule:nonzero;stroke:none"
         id="path216" />
      <path
         d="m 5678.97,1025.99 c 0,-26.861 -21.77,-48.631 -48.63,-48.631 -26.87,0 -48.64,21.77 -48.64,48.631 0,26.87 21.77,48.64 48.64,48.64 26.86,0 48.63,-21.77 48.63,-48.64"
         style="fill:#f2575d;fill-opacity:1;fill-rule:nonzero;stroke:none"
         id="path218" />
      <path
         d="m 5914.86,1241.66 c 0,-26.86 -21.78,-48.63 -48.64,-48.63 -26.86,0 -48.64,21.77 -48.64,48.63 0,26.87 21.78,48.64 48.64,48.64 26.86,0 48.64,-21.77 48.64,-48.64"
         style="fill:#f2575d;fill-opacity:1;fill-rule:nonzero;stroke:none"
         id="path220" />
      <path
         d="m 5683.68,1457.33 c 0,-26.86 -21.77,-48.63 -48.64,-48.63 -26.86,0 -48.63,21.77 -48.63,48.63 0,26.87 21.77,48.64 48.63,48.64 26.87,0 48.64,-21.77 48.64,-48.64"
         style="fill:#f2575d;fill-opacity:1;fill-rule:nonzero;stroke:none"
         id="path222" />
      <path
         d="m 5859.5,1241.66 c 0,-1.43 -189.5,-2.6 -423.2,-2.6 -233.78,0 -423.24,1.17 -423.24,2.6 0,1.44 189.46,2.61 423.24,2.61 233.7,0 423.2,-1.17 423.2,-2.61"
         style="fill:#f2575d;fill-opacity:1;fill-rule:nonzero;stroke:none"
         id="path224" />
      <path
         d="m 5630.34,1003.8 c -1.44,0 -2.61,99.5 -2.61,222.2 0,122.74 1.17,222.22 2.61,222.22 1.43,0 2.6,-99.48 2.6,-222.22 0,-122.7 -1.17,-222.2 -2.6,-222.2"
         style="fill:#f2575d;fill-opacity:1;fill-rule:nonzero;stroke:none"
         id="path226" />
      <path
         d="m 3165.66,3236.54 h -732.95 c -46.29,0 -83.82,37.53 -83.82,83.83 v 427.81 c 0,46.3 37.53,83.82 83.82,83.82 h 732.95 c 46.29,0 83.82,-37.52 83.82,-83.82 v -427.81 c 0,-46.3 -37.53,-83.83 -83.82,-83.83"
         style="fill:#f2575d;fill-opacity:1;fill-rule:nonzero;stroke:none"
         id="path228" />
      <path
         d="m 3165.66,3236.54 h -732.95 c -46.29,0 -83.82,37.53 -83.82,83.83 v 427.81 c 0,46.3 37.53,83.82 83.82,83.82 h 732.95 c 46.29,0 83.82,-37.52 83.82,-83.82 v -427.81 c 0,-46.3 -37.53,-83.83 -83.82,-83.83"
         style="fill:#cc4341;fill-opacity:1;fill-rule:nonzero;stroke:none"
         id="path230" />
      <path
         d="m 3105.21,3236.55 h -732.95 c -46.29,0 -83.82,37.52 -83.82,83.82 v 427.81 c 0,46.3 37.53,83.82 83.82,83.82 h 732.95 c 46.29,0 83.82,-37.52 83.82,-83.82 v -427.81 c 0,-46.3 -37.53,-83.82 -83.82,-83.82"
         style="fill:#f2575d;fill-opacity:1;fill-rule:nonzero;stroke:none"
         id="path232" />
      <path
         d="m 2641.43,3567.73 -122.75,-43.48 122.75,-43.48 v -56.18 l -189.7,70.03 v 59.26 l 189.7,70.02 v -56.17"
         style="fill:#ffffff;fill-opacity:1;fill-rule:nonzero;stroke:none"
         id="path234" />
      <path
         d="m 2776.48,3713.56 h 65.02 L 2714.53,3351.1 h -65.03 l 126.98,362.46"
         style="fill:#ffffff;fill-opacity:1;fill-rule:nonzero;stroke:none"
         id="path236" />
      <path
         d="m 3035.44,3553.88 v -59.26 l -189.7,-70.03 v 56.18 l 122.75,43.48 -122.75,43.48 v 56.17 l 189.7,-70.02"
         style="fill:#ffffff;fill-opacity:1;fill-rule:nonzero;stroke:none"
         id="path238" />
      <path
         d="m 4142.98,3406.46 c -65.8,-68.16 -63.89,-176.75 4.27,-242.55 68.15,-65.8 176.74,-63.89 242.54,4.27 65.8,68.15 63.9,176.75 -4.26,242.55 -68.16,65.79 -176.75,63.88 -242.55,-4.27 m -85.22,212.98 c 30.23,18.27 62.41,32.12 95.59,41.55 l 19.7,94.63 159.88,2.8 23,-93.87 c 33.51,-8.25 66.16,-20.96 97.01,-38.16 l 44.36,52.96 h 36.44 l 115.04,-111.07 -50.09,-82.6 c 18.28,-30.23 32.13,-62.43 41.55,-95.62 l 94.62,-19.69 2.81,-159.87 -93.88,-23.02 c -8.25,-33.49 -20.96,-66.14 -38.16,-96.99 l 52.96,-80.81 -111.06,-115.03 h -36.44 l -46.16,50.08 c -30.24,-18.27 -62.42,-32.11 -95.62,-41.54 l -19.69,-94.63 -159.87,-2.8 -23.01,93.87 c -33.5,8.26 -66.15,20.97 -97,38.16 l -80.81,-52.96 h -36.44 l -78.59,111.07 50.08,82.6 c -18.27,30.23 -32.12,62.41 -41.55,95.61 l -94.62,19.69 -2.8,159.88 93.87,23.02 c 8.25,33.49 20.97,66.14 38.16,96.99 l -52.96,80.8 74.62,115.04 h 36.44 l 82.62,-50.09"
         style="fill:#dadbd8;fill-opacity:1;fill-rule:nonzero;stroke:none"
         id="path240" />
      <path
         d="m 4189.75,2805.76 -23.01,93.87 c -33.5,8.26 -66.15,20.97 -97,38.16 l -80.81,-52.96 h -36.44 l -78.59,111.07 50.08,82.6 v 0 c -18.27,30.23 -32.12,62.41 -41.55,95.61 l -94.62,19.69 -2.8,159.88 93.87,23.02 c 8.25,33.49 20.97,66.14 38.16,96.99 v 0 0 l -52.96,80.8 74.62,115.04 h 36.44 l 82.62,-50.09 c 30.23,18.27 62.41,32.12 95.59,41.55 l 19.7,94.63 159.88,2.8 23,-93.87 c 33.51,-8.25 66.16,-20.96 97.01,-38.16 l 44.36,52.96 h 36.44 l 115.04,-111.07 -50.09,-82.6 v 0 c 18.28,-30.23 32.13,-62.43 41.55,-95.62 l 94.62,-19.69 2.81,-159.87 -93.88,-23.02 c -8.25,-33.49 -20.96,-66.14 -38.16,-96.99 v 0 0 l 52.96,-80.81 -111.06,-115.03 h -36.44 l -46.16,50.08 c -30.24,-18.27 -62.42,-32.11 -95.62,-41.54 l -19.69,-94.63 -159.87,-2.8 m -94.9,481.63 c -0.01,-44.93 17.52,-89.81 52.4,-123.48 33.29,-32.14 76.23,-48.12 119.12,-48.12 44.91,-0.01 89.76,17.53 123.42,52.39 32.13,33.28 48.11,76.2 48.13,119.07 0.01,44.93 -17.52,89.8 -52.39,123.48 -33.3,32.14 -76.24,48.12 -119.12,48.12 -44.92,0 -89.77,-17.53 -123.43,-52.39 -32.13,-33.28 -48.11,-76.2 -48.13,-119.07"
         style="fill:#8f9192;fill-opacity:1;fill-rule:nonzero;stroke:none"
         id="path242" />
      <path
         d="m 4106.54,3406.46 c -65.8,-68.16 -63.9,-176.75 4.26,-242.55 68.16,-65.8 176.75,-63.89 242.55,4.27 65.79,68.15 63.89,176.75 -4.27,242.55 -68.15,65.79 -176.74,63.88 -242.54,-4.27 z m -85.22,212.98 c 30.22,18.27 62.4,32.12 95.59,41.55 l 19.7,94.62 159.87,2.81 23.01,-93.87 c 33.5,-8.25 66.16,-20.96 97.01,-38.16 l 80.8,52.96 115.03,-111.07 -50.08,-82.6 c 18.27,-30.23 32.12,-62.43 41.54,-95.62 l 94.62,-19.69 2.81,-159.87 -93.87,-23.02 c -8.25,-33.49 -20.97,-66.14 -38.16,-96.99 l 52.96,-80.81 -111.06,-115.03 -82.61,50.08 c -30.23,-18.27 -62.41,-32.11 -95.61,-41.54 l -19.69,-94.63 -159.87,-2.8 -23.02,93.87 c -33.5,8.26 -66.14,20.97 -97,38.16 l -80.8,-52.96 -115.03,111.07 50.08,82.6 c -18.27,30.23 -32.13,62.41 -41.55,95.61 l -94.62,19.69 -2.81,159.88 93.88,23.02 c 8.25,33.49 20.97,66.14 38.16,96.99 l -52.96,80.8 111.06,115.04 82.62,-50.09"
         style="fill:#dadbd8;fill-opacity:1;fill-rule:nonzero;stroke:none"
         id="path244" />
      <path
         d="M 6846.85,1708.92 H 5329.86 c -55.73,0 -100.91,45.18 -100.91,100.91 v 2161.34 c 0,55.73 45.18,100.91 100.91,100.91 h 1516.99 c 55.73,0 100.91,-45.18 100.91,-100.91 V 1809.83 c 0,-55.73 -45.18,-100.91 -100.91,-100.91"
         style="fill:#ffffff;fill-opacity:1;fill-rule:nonzero;stroke:none"
         id="path246" />
      <path
         d="m 6297.25,2419.93 h -417.79 v 348.71 h 417.79 v -348.71"
         style="fill:#dadbd8;fill-opacity:1;fill-rule:nonzero;stroke:none"
         id="path248" />
      <path
         d="m 6825.85,2415.48 h -417.8 v 348.71 h 417.8 v -348.71"
         style="fill:#dadbd8;fill-opacity:1;fill-rule:nonzero;stroke:none"
         id="path250" />
      <path
         d="m 5768.66,2415.48 h -417.8 v 348.71 h 417.8 v -348.71"
         style="fill:#dadbd8;fill-opacity:1;fill-rule:nonzero;stroke:none"
         id="path252" />
      <path
         d="M 6947.76,2932.91 H 5228.95 v 637.27 h 1718.81 v -637.27"
         style="fill:#dadbd8;fill-opacity:1;fill-rule:nonzero;stroke:none"
         id="path254" />
      <path
         d="M 6947.76,3836.09 H 5228.95 v 143.21 c 0,51.24 41.54,92.78 92.77,92.78 h 1522.01 c 57.45,0 104.03,-46.58 104.03,-104.04 v -131.95"
         style="fill:#dadbd8;fill-opacity:1;fill-rule:nonzero;stroke:none"
         id="path256" />
      <path
         d="m 5467.83,3703.13 c 0,-41.33 -33.51,-74.84 -74.84,-74.84 -41.34,0 -74.84,33.51 -74.84,74.84 0,41.34 33.5,74.85 74.84,74.85 41.33,0 74.84,-33.51 74.84,-74.85"
         style="fill:#f2575d;fill-opacity:1;fill-rule:nonzero;stroke:none"
         id="path258" />
      <path
         d="m 6140.29,3672.29 h -274.95 v 64.06 h 274.95 v -64.06"
         style="fill:#dadbd8;fill-opacity:1;fill-rule:nonzero;stroke:none"
         id="path260" />
      <path
         d="m 6482.92,3672.29 h -274.94 v 64.06 h 274.94 v -64.06"
         style="fill:#dadbd8;fill-opacity:1;fill-rule:nonzero;stroke:none"
         id="path262" />
      <path
         d="m 6825.56,3672.29 h -274.94 v 64.06 h 274.94 v -64.06"
         style="fill:#dadbd8;fill-opacity:1;fill-rule:nonzero;stroke:none"
         id="path264" />
      <path
         d="m 5768.66,2241.8 h -417.8 v 55.85 h 417.8 v -55.85"
         style="fill:#dadbd8;fill-opacity:1;fill-rule:nonzero;stroke:none"
         id="path266" />
      <path
         d="m 5768.66,2119.9 h -417.8 v 55.85 h 417.8 v -55.85"
         style="fill:#dadbd8;fill-opacity:1;fill-rule:nonzero;stroke:none"
         id="path268" />
      <path
         d="m 5577.06,1998 h -226.2 v 55.85 h 226.2 V 1998"
         style="fill:#dadbd8;fill-opacity:1;fill-rule:nonzero;stroke:none"
         id="path270" />
      <path
         d="m 6305.72,2241.8 h -417.79 v 55.85 h 417.79 v -55.85"
         style="fill:#dadbd8;fill-opacity:1;fill-rule:nonzero;stroke:none"
         id="path272" />
      <path
         d="m 6305.72,2119.9 h -417.79 v 55.85 h 417.79 v -55.85"
         style="fill:#dadbd8;fill-opacity:1;fill-rule:nonzero;stroke:none"
         id="path274" />
      <path
         d="m 6114.13,1998 h -226.2 v 55.85 h 226.2 V 1998"
         style="fill:#dadbd8;fill-opacity:1;fill-rule:nonzero;stroke:none"
         id="path276" />
      <path
         d="m 6842.79,2241.8 h -417.8 v 55.85 h 417.8 v -55.85"
         style="fill:#dadbd8;fill-opacity:1;fill-rule:nonzero;stroke:none"
         id="path278" />
      <path
         d="m 6842.79,2119.9 h -417.8 v 55.85 h 417.8 v -55.85"
         style="fill:#dadbd8;fill-opacity:1;fill-rule:nonzero;stroke:none"
         id="path280" />
      <path
         d="m 6651.19,1998 h -226.2 v 55.85 h 226.2 V 1998"
         style="fill:#dadbd8;fill-opacity:1;fill-rule:nonzero;stroke:none"
         id="path282" />
      <path
         d="m 6846.85,1708.92 c 0,0 1.75,0.18 5.19,0.4 3.46,0.04 8.55,0.79 15.25,1.95 13.04,2.94 33.26,9.83 51.84,29.01 9.13,9.55 17.48,22.19 22.71,37.66 5.87,15.47 5.25,33.64 5.14,53.06 -0.06,38.92 -0.14,83.82 -0.23,134.35 -0.2,202.24 -0.48,494.77 -0.83,856.23 -0.1,180.75 -0.21,378.74 -0.32,591.28 -0.04,106.27 -0.09,216.18 -0.13,329.39 -0.02,56.61 -0.04,114.04 -0.06,172.26 0,14.55 -0.01,29.15 -0.01,43.81 0.22,14.75 0.02,29.09 -4.71,42.88 -8.83,27.38 -30.18,50.91 -57.48,61.46 -13.63,5.5 -28.17,7.3 -43.14,7 -15.03,0 -30.1,0 -45.22,-0.01 -30.24,-0.01 -60.66,-0.01 -91.25,-0.02 -61.19,-0.01 -123.08,-0.03 -185.62,-0.04 -125.1,-0.02 -252.82,-0.04 -382.85,-0.07 -260.05,-0.01 -529.31,-0.03 -805.08,-0.05 -16.8,-0.15 -33.55,-4.33 -48.16,-12.54 -14.51,-8.31 -27.16,-20.05 -35.74,-34.41 -8.87,-14.16 -13.78,-30.64 -14.39,-47.28 -0.41,-16.86 -0.11,-34.07 -0.21,-51.05 0,-68.11 0,-135.76 -0.01,-202.93 -0.01,-134.33 -0.02,-266.69 -0.04,-396.75 -0.05,-260.12 -0.1,-511.02 -0.15,-750.03 -0.08,-239.01 -0.16,-466.13 -0.24,-678.69 -0.01,-26.57 -0.02,-52.91 -0.03,-79.02 -1.23,-25.84 6.82,-51.42 23.27,-70.62 16.15,-19.24 39.63,-31.9 64.19,-34.48 12.16,-1.16 24.89,-0.55 37.29,-0.72 12.46,0 24.85,-0.01 37.18,-0.02 98.66,-0.06 193.35,-0.11 283.72,-0.17 361.46,-0.34 653.97,-0.63 856.19,-0.82 101.03,-0.22 179.5,-0.38 232.77,-0.49 26.57,-0.12 46.84,-0.2 60.54,-0.26 13.64,-0.09 20.62,-0.27 20.62,-0.27 0,0 -6.98,-0.18 -20.62,-0.26 -13.7,-0.06 -33.97,-0.15 -60.54,-0.26 -53.27,-0.11 -131.74,-0.28 -232.77,-0.49 -202.22,-0.2 -494.73,-0.48 -856.19,-0.83 -90.37,-0.05 -185.06,-0.11 -283.72,-0.17 -12.33,0 -24.72,-0.01 -37.18,-0.02 -12.49,0.17 -24.86,-0.49 -37.76,0.71 -25.58,2.66 -50.06,15.82 -66.9,35.86 -17.17,19.85 -25.61,46.97 -24.34,73.31 -0.01,26.11 -0.03,52.45 -0.04,79.02 -0.07,212.56 -0.15,439.68 -0.24,678.69 -0.05,239.01 -0.1,489.91 -0.15,750.03 -0.01,130.06 -0.02,262.42 -0.04,396.75 0,67.17 -0.01,134.82 -0.01,202.93 0.1,17.07 -0.21,33.98 0.21,51.27 0.64,17.5 5.82,34.87 15.16,49.79 9.04,15.11 22.34,27.47 37.62,36.22 15.38,8.65 33.06,13.07 50.71,13.21 275.77,-0.02 545.03,-0.04 805.08,-0.05 130.03,-0.02 257.75,-0.04 382.85,-0.07 62.54,-0.01 124.43,-0.02 185.62,-0.04 30.59,0 61.01,-0.01 91.25,-0.02 15.12,0 30.19,-0.01 45.22,-0.01 15.03,0.31 30.76,-1.59 44.92,-7.37 28.62,-11.1 50.98,-35.75 60.22,-64.47 4.96,-14.32 5.15,-29.9 4.91,-44.33 -0.01,-14.66 -0.01,-29.26 -0.01,-43.81 -0.02,-58.22 -0.04,-115.65 -0.06,-172.26 -0.05,-113.21 -0.09,-223.12 -0.13,-329.39 -0.12,-212.54 -0.22,-410.53 -0.32,-591.28 -0.35,-361.46 -0.63,-653.99 -0.83,-856.23 -0.09,-50.53 -0.17,-95.43 -0.24,-134.35 -0.17,-9.75 0.3,-19.05 -0.41,-28.1 -0.53,-9.03 -2.41,-17.55 -5.05,-25.37 -5.38,-15.65 -13.9,-28.39 -23.18,-37.98 -18.9,-19.26 -39.35,-26.02 -52.49,-28.8 -6.76,-1.09 -11.88,-1.75 -15.35,-1.7 -3.45,-0.13 -5.2,-0.13 -5.2,-0.13"
         style="fill:#17282f;fill-opacity:1;fill-rule:nonzero;stroke:none"
         id="path284" />
      <path
         d="m 5396.84,3941.73 c 0,-15.81 -12.82,-28.63 -28.63,-28.63 -15.82,0 -28.64,12.82 -28.64,28.63 0,15.81 12.82,28.63 28.64,28.63 15.81,0 28.63,-12.82 28.63,-28.63"
         style="fill:#ffffff;fill-opacity:1;fill-rule:nonzero;stroke:none"
         id="path286" />
      <path
         d="m 5487.36,3941.73 c 0,-15.81 -12.82,-28.63 -28.63,-28.63 -15.82,0 -28.64,12.82 -28.64,28.63 0,15.81 12.82,28.63 28.64,28.63 15.81,0 28.63,-12.82 28.63,-28.63"
         style="fill:#ffffff;fill-opacity:1;fill-rule:nonzero;stroke:none"
         id="path288" />
      <path
         d="m 5577.88,3941.73 c 0,-15.81 -12.82,-28.63 -28.63,-28.63 -15.82,0 -28.64,12.82 -28.64,28.63 0,15.81 12.82,28.63 28.64,28.63 15.81,0 28.63,-12.82 28.63,-28.63"
         style="fill:#ffffff;fill-opacity:1;fill-rule:nonzero;stroke:none"
         id="path290" />
      <path
         d="m 5969.27,3238.47 v 139.62 c 0,26.23 29.25,42.62 52.65,29.51 l 124.57,-69.82 124.58,-69.81 c 23.4,-13.11 23.4,-45.89 0,-59 l -124.58,-69.81 -124.57,-69.82 c -23.4,-13.11 -52.65,3.28 -52.65,29.51 v 139.62"
         style="fill:#ffffff;fill-opacity:1;fill-rule:nonzero;stroke:none"
         id="path292" />
      <path
         d="M 6791.96,2.60938 6132.02,5.48047 C 6052.65,5.83203 5988.59,66.75 5988.93,141.582 l 6.99,1559.748 c 0.34,74.87 65,135.29 144.42,134.95 l 659.94,-2.87 c 79.37,-0.35 143.43,-61.27 143.09,-136.1 L 6936.38,137.563 C 6936.04,62.6914 6871.38,2.26172 6791.96,2.60938"
         style="fill:#17282f;fill-opacity:1;fill-rule:nonzero;stroke:none"
         id="path294" />
      <path
         d="m 6799.34,1779.58 -127.95,0.55 -373.69,1.63 -45,0.2 -111.99,0.48 c -55.61,0.24 -100.9,-42.08 -101.14,-94.51 L 6032.75,165.5 c -0.24,-52.41 44.62,-95.0703 100.21,-95.3203 l 658.62,-2.8594 c 55.62,-0.2383 100.91,42.0817 101.15,94.5117 l 6.82,1522.428 c 0.24,52.41 -44.62,95.07 -100.21,95.32"
         style="fill:#ffffff;fill-opacity:1;fill-rule:nonzero;stroke:none"
         id="path296" />
      <path
         d="m 6804.99,1637.9 c -0.02,-4.38 -3.69,-7.91 -8.2,-7.89 -4.5,0.01 -8.14,3.57 -8.13,7.95 0.02,4.37 3.69,7.91 8.2,7.89 4.5,-0.01 8.15,-3.57 8.13,-7.95"
         style="fill:#17282f;fill-opacity:1;fill-rule:nonzero;stroke:none"
         id="path298" />
      <path
         d="m 6804.88,1609.4 c -0.02,-4.38 -3.69,-7.91 -8.2,-7.9 -4.5,0.02 -8.14,3.58 -8.13,7.96 0.02,4.37 3.69,7.91 8.2,7.89 4.5,-0.02 8.15,-3.58 8.13,-7.95"
         style="fill:#17282f;fill-opacity:1;fill-rule:nonzero;stroke:none"
         id="path300" />
      <path
         d="m 6804.77,1580.9 c -0.02,-4.38 -3.69,-7.92 -8.19,-7.9 -4.51,0.02 -8.15,3.58 -8.14,7.95 0.02,4.38 3.69,7.91 8.2,7.9 4.51,-0.02 8.15,-3.58 8.13,-7.95"
         style="fill:#17282f;fill-opacity:1;fill-rule:nonzero;stroke:none"
         id="path302" />
      <path
         d="m 6245.28,1601.5 c 0,-28.89 -24.13,-52.3 -53.89,-52.3 -29.76,0 -53.89,23.41 -53.89,52.3 0,28.89 24.13,52.31 53.89,52.31 29.76,0 53.89,-23.42 53.89,-52.31"
         style="fill:#f2575d;fill-opacity:1;fill-rule:nonzero;stroke:none"
         id="path304" />
      <path
         d="m 6645.7,1591.46 h -276.32 c -9.92,0 -17.97,8.04 -17.97,17.97 v 0 c 0,9.92 8.05,17.97 17.97,17.97 h 276.32 c 9.92,0 17.97,-8.05 17.97,-17.97 v 0 c 0,-9.93 -8.05,-17.97 -17.97,-17.97"
         style="fill:#dadbd8;fill-opacity:1;fill-rule:nonzero;stroke:none"
         id="path306" />
      <path
         d="m 6303.95,924.879 v 154.581 c 0,29.04 32.38,47.18 58.29,32.66 l 137.92,-77.29 137.92,-77.279 c 25.9,-14.52 25.9,-50.821 0,-65.332 L 6500.16,814.93 6362.24,737.641 c -25.91,-14.52 -58.29,3.629 -58.29,32.66 v 154.578"
         style="fill:#f2575d;fill-opacity:1;fill-rule:nonzero;stroke:none"
         id="path308" />
      <path
         d="m 4846.27,252.332 c 58.55,93.09 157.64,114.758 247.64,94.258 -13.82,132.519 45.79,270.359 151.8,351.07 106.02,80.699 254.76,101.449 378.82,52.84 124.05,-48.609 219.1,-164.871 242.08,-296.121 93.31,66.133 233.29,21.383 301.72,-70.25 68.42,-91.629 72.62,-287.3595 -7.56,-379.50791 L 4868.76,12.0117 c 0,0 -98.41,119.6173 -22.49,240.3203"
         style="fill:#f2575d;fill-opacity:1;fill-rule:nonzero;stroke:none"
         id="path310" />
      <path
         d="M 6160.77,4.62109 4868.76,12.0117 c 0,0 -51.25,62.2969 -51.25,142.3473 0.01,30.871 7.63,64.383 28.76,97.973 45.35,72.109 115.03,101.359 185.96,101.359 20.64,0 41.39,-2.48 61.68,-7.101 v 0 0 c -1.32,12.68 -1.97,25.422 -1.98,38.14 -0.01,120.239 57.91,239.95 153.78,312.93 67.94,51.711 153.43,78.809 238.72,78.809 47.8,0 95.54,-8.508 140.1,-25.969 124.05,-48.609 219.1,-164.871 242.08,-296.121 30.75,21.801 66.57,31.551 103.22,31.551 74.58,0 152.62,-40.36 198.5,-101.801 33.81,-45.277 51.94,-115.969 51.95,-187.027 0.01,-44.282 -7.01,-88.7 -21.66,-127.2036 -9.29,-24.4179 -21.64,-46.4375 -37.21,-64.53902 -0.21,-0.25 -0.43,-0.5 -0.64,-0.73829"
         style="fill:#cc4341;fill-opacity:1;fill-rule:nonzero;stroke:none"
         id="path312" />
      <path
         d="m 4735.26,252.332 c 58.55,93.09 157.64,114.758 247.64,94.258 -13.82,132.519 45.79,270.359 151.8,351.07 106.02,80.699 254.76,101.449 378.82,52.84 124.05,-48.609 219.11,-164.871 242.08,-296.121 93.31,66.133 233.29,21.383 301.72,-70.25 68.42,-91.629 72.62,-287.3595 -7.56,-379.50791 L 4757.75,12.0117 c 0,0 -98.41,119.6173 -22.49,240.3203"
         style="fill:#f2575d;fill-opacity:1;fill-rule:nonzero;stroke:none"
         id="path314" />
      <path
         d="M 1506.62,2.58203 H 232.23 c -21.382,0 -38.714,17.32817 -38.714,38.70707 V 1256.17 c 0,21.38 17.332,38.71 38.714,38.71 h 1274.39 c 21.38,0 38.71,-17.33 38.71,-38.71 V 41.2891 c 0,-21.3789 -17.33,-38.70707 -38.71,-38.70707"
         style="fill:#dadbd8;fill-opacity:1;fill-rule:nonzero;stroke:none"
         id="path316" />
      <path
         d="m 1547.67,882.359 c 0,-1.437 -301.93,-2.597 -674.307,-2.597 -372.5,0 -674.375,1.16 -674.375,2.597 0,1.442 301.875,2.61 674.375,2.61 372.377,0 674.307,-1.168 674.307,-2.61"
         style="fill:#17282f;fill-opacity:1;fill-rule:nonzero;stroke:none"
         id="path318" />
      <path
         d="m 1547.67,467.461 c 0,-1.441 -301.93,-2.602 -674.307,-2.602 -372.5,0 -674.375,1.161 -674.375,2.602 0,1.441 301.875,2.598 674.375,2.598 372.377,0 674.307,-1.157 674.307,-2.598"
         style="fill:#17282f;fill-opacity:1;fill-rule:nonzero;stroke:none"
         id="path320" />
      <path
         d="m 468.66,1076.79 c 0,-16.23 -13.156,-29.39 -29.39,-29.39 -16.231,0 -29.391,13.16 -29.391,29.39 0,16.23 13.16,29.39 29.391,29.39 16.234,0 29.39,-13.16 29.39,-29.39"
         style="fill:#ffffff;fill-opacity:1;fill-rule:nonzero;stroke:none"
         id="path322" />
      <path
         d="m 574.113,1076.79 c 0,-16.23 -13.156,-29.39 -29.39,-29.39 -16.231,0 -29.391,13.16 -29.391,29.39 0,16.23 13.16,29.39 29.391,29.39 16.234,0 29.39,-13.16 29.39,-29.39"
         style="fill:#ffffff;fill-opacity:1;fill-rule:nonzero;stroke:none"
         id="path324" />
      <path
         d="m 1210.4,1021.91 h -5.06 c -6.02,0 -10.9,4.89 -10.9,10.91 v 78.3 c 0,6.02 4.88,10.9 10.9,10.9 h 5.06 c 6.03,0 10.91,-4.88 10.91,-10.9 v -78.3 c 0,-6.02 -4.88,-10.91 -10.91,-10.91"
         style="fill:#17282f;fill-opacity:1;fill-rule:nonzero;stroke:none"
         id="path326" />
      <path
         d="m 1278.16,1021.91 h -5.07 c -6.02,0 -10.9,4.89 -10.9,10.91 v 78.3 c 0,6.02 4.88,10.9 10.9,10.9 h 5.07 c 6.02,0 10.9,-4.88 10.9,-10.9 v -78.3 c 0,-6.02 -4.88,-10.91 -10.9,-10.91"
         style="fill:#17282f;fill-opacity:1;fill-rule:nonzero;stroke:none"
         id="path328" />
      <path
         d="m 1340.63,1021.91 h -5.07 c -6.02,0 -10.9,4.89 -10.9,10.91 v 78.3 c 0,6.02 4.88,10.9 10.9,10.9 h 5.07 c 6.02,0 10.9,-4.88 10.9,-10.9 v -78.3 c 0,-6.02 -4.88,-10.91 -10.9,-10.91"
         style="fill:#ffffff;fill-opacity:1;fill-rule:nonzero;stroke:none"
         id="path330" />
      <path
         d="m 1141.77,1021.91 h -5.06 c -6.02,0 -10.9,4.89 -10.9,10.91 v 78.3 c 0,6.02 4.88,10.9 10.9,10.9 h 5.06 c 6.02,0 10.9,-4.88 10.9,-10.9 v -78.3 c 0,-6.02 -4.88,-10.91 -10.9,-10.91"
         style="fill:#f2575d;fill-opacity:1;fill-rule:nonzero;stroke:none"
         id="path332" />
      <path
         d="m 468.66,673.699 c 0,-16.23 -13.156,-29.39 -29.39,-29.39 -16.231,0 -29.391,13.16 -29.391,29.39 0,16.242 13.16,29.391 29.391,29.391 16.234,0 29.39,-13.149 29.39,-29.391"
         style="fill:#ffffff;fill-opacity:1;fill-rule:nonzero;stroke:none"
         id="path334" />
      <path
         d="m 568.402,673.699 c 0,-16.23 -13.16,-29.39 -29.39,-29.39 -16.235,0 -29.395,13.16 -29.395,29.39 0,16.242 13.16,29.391 29.395,29.391 16.23,0 29.39,-13.149 29.39,-29.391"
         style="fill:#ffffff;fill-opacity:1;fill-rule:nonzero;stroke:none"
         id="path336" />
      <path
         d="m 1210.4,618.832 h -5.06 c -6.02,0 -10.9,4.879 -10.9,10.898 v 78.301 c 0,6.02 4.88,10.899 10.9,10.899 h 5.06 c 6.03,0 10.91,-4.879 10.91,-10.899 V 629.73 c 0,-6.019 -4.88,-10.898 -10.91,-10.898"
         style="fill:#17282f;fill-opacity:1;fill-rule:nonzero;stroke:none"
         id="path338" />
      <path
         d="m 1278.16,618.832 h -5.07 c -6.02,0 -10.9,4.879 -10.9,10.898 v 78.301 c 0,6.02 4.88,10.899 10.9,10.899 h 5.07 c 6.02,0 10.9,-4.879 10.9,-10.899 V 629.73 c 0,-6.019 -4.88,-10.898 -10.9,-10.898"
         style="fill:#17282f;fill-opacity:1;fill-rule:nonzero;stroke:none"
         id="path340" />
      <path
         d="m 1340.63,618.832 h -5.07 c -6.02,0 -10.9,4.879 -10.9,10.898 v 78.301 c 0,6.02 4.88,10.899 10.9,10.899 h 5.07 c 6.02,0 10.9,-4.879 10.9,-10.899 V 629.73 c 0,-6.019 -4.88,-10.898 -10.9,-10.898"
         style="fill:#ffffff;fill-opacity:1;fill-rule:nonzero;stroke:none"
         id="path342" />
      <path
         d="m 1141.77,618.832 h -5.06 c -6.02,0 -10.9,4.879 -10.9,10.898 v 78.301 c 0,6.02 4.88,10.899 10.9,10.899 h 5.06 c 6.02,0 10.9,-4.879 10.9,-10.899 V 629.73 c 0,-6.019 -4.88,-10.898 -10.9,-10.898"
         style="fill:#f2575d;fill-opacity:1;fill-rule:nonzero;stroke:none"
         id="path344" />
      <path
         d="m 468.66,239.852 c 0,-16.231 -13.156,-29.391 -29.39,-29.391 -16.231,0 -29.391,13.16 -29.391,29.391 0,16.23 13.16,29.39 29.391,29.39 16.234,0 29.39,-13.16 29.39,-29.39"
         style="fill:#ffffff;fill-opacity:1;fill-rule:nonzero;stroke:none"
         id="path346" />
      <path
         d="m 576.891,239.852 c 0,-16.231 -13.157,-29.391 -29.391,-29.391 -16.23,0 -29.391,13.16 -29.391,29.391 0,16.23 13.161,29.39 29.391,29.39 16.234,0 29.391,-13.16 29.391,-29.39"
         style="fill:#ffffff;fill-opacity:1;fill-rule:nonzero;stroke:none"
         id="path348" />
      <path
         d="m 1210.4,184.98 h -5.06 c -6.02,0 -10.9,4.879 -10.9,10.899 v 78.301 c 0,6.019 4.88,10.902 10.9,10.902 h 5.06 c 6.03,0 10.91,-4.883 10.91,-10.902 v -78.301 c 0,-6.02 -4.88,-10.899 -10.91,-10.899"
         style="fill:#17282f;fill-opacity:1;fill-rule:nonzero;stroke:none"
         id="path350" />
      <path
         d="m 1278.16,184.98 h -5.07 c -6.02,0 -10.9,4.879 -10.9,10.899 v 78.301 c 0,6.019 4.88,10.902 10.9,10.902 h 5.07 c 6.02,0 10.9,-4.883 10.9,-10.902 v -78.301 c 0,-6.02 -4.88,-10.899 -10.9,-10.899"
         style="fill:#17282f;fill-opacity:1;fill-rule:nonzero;stroke:none"
         id="path352" />
      <path
         d="m 1340.63,184.98 h -5.07 c -6.02,0 -10.9,4.879 -10.9,10.899 v 78.301 c 0,6.019 4.88,10.902 10.9,10.902 h 5.07 c 6.02,0 10.9,-4.883 10.9,-10.902 v -78.301 c 0,-6.02 -4.88,-10.899 -10.9,-10.899"
         style="fill:#ffffff;fill-opacity:1;fill-rule:nonzero;stroke:none"
         id="path354" />
      <path
         d="m 1141.77,184.98 h -5.06 c -6.02,0 -10.9,4.879 -10.9,10.899 v 78.301 c 0,6.019 4.88,10.902 10.9,10.902 h 5.06 c 6.02,0 10.9,-4.883 10.9,-10.902 v -78.301 c 0,-6.02 -4.88,-10.899 -10.9,-10.899"
         style="fill:#f2575d;fill-opacity:1;fill-rule:nonzero;stroke:none"
         id="path356" />
      <path
         d="m 867.395,3141.77 c -2.004,23.43 -26.883,42.16 -49.946,37.61 -13.094,25.68 -48.898,36.6 -74.101,22.61 -11.989,-6.65 -21.047,-17.64 -32.754,-24.78 -11.25,-6.86 -24.406,-9.84 -36.281,-15.54 -11.883,-5.7 -23.25,-15.53 -24.747,-28.62 -1.66,-14.55 9.914,-27.98 23.512,-33.41 13.594,-5.43 28.758,-4.71 43.375,-3.91 -6.387,-3.67 -7.773,-12.95 -4.492,-19.55 3.281,-6.6 9.977,-10.84 16.82,-13.57 22.727,-9.08 50.453,-3.95 68.434,12.64 l 27.351,20.98 c 23.504,-0.56 44.836,22.12 42.829,45.54"
         style="fill:#17282f;fill-opacity:1;fill-rule:nonzero;stroke:none"
         id="path358" />
      <path
         d="m 799.051,3050.32 c -5.043,-5.01 -14.078,-4.47 -19.297,0.35 -5.215,4.82 -6.68,12.88 -4.645,19.69 2.036,6.8 7.118,12.4 13.071,16.28 5.949,3.88 12.758,6.23 19.57,8.25 10.512,3.13 21.289,5.59 32.242,6.12 3.887,0.19 7.899,0.11 11.485,-1.4 3.586,-1.51 6.675,-4.74 6.992,-8.62 0.449,-5.45 -4.324,-9.76 -8.723,-13.01 -16.406,-12.11 -33.906,-22.74 -52.226,-31.7"
         style="fill:#f2575d;fill-opacity:1;fill-rule:nonzero;stroke:none"
         id="path360" />
      <path
         d="m 783.035,3053.11 c -25.937,28.94 -90.488,25.08 -105.922,6.27 -22.316,11.79 -53.453,1.69 -64.59,-20.97 -22.914,-4.84 -45.828,-9.69 -68.742,-14.53 -11.726,-2.48 -23.996,-5.22 -33.054,-13.07 -9.051,-7.85 -13.368,-22.55 -6.012,-32.01 -24.223,-6.12 -33.961,-42.05 -16.137,-59.56 -9.945,-10.31 -8.121,-29.43 3.598,-37.67 -19.106,-22.58 -34.317,-48.45 -44.762,-76.13 -4.371,-11.58 -7.906,-24.5 -3.684,-36.14 4.223,-11.64 19.434,-19.74 29.524,-12.57 -6.922,-9.34 -7.609,-22.87 -1.668,-32.87 -11.613,-0.2 -15.199,-18.13 -7.281,-26.62 7.922,-8.5 20.875,-9.48 32.488,-9.29 11.613,0.19 24.203,0.7 33.691,-6 -0.449,-3.46 -1.836,-5.73 -3.839,-7.34 -20.059,-16.07 -25.915,-43.96 -11.114,-64.97 1.371,-1.95 2.653,-3.75 3.774,-5.36 6.664,-9.6 23.246,-18.46 33.566,-23.94 26.164,-13.87 41.817,-11.39 71.102,-15.84 -8.133,-18.84 39.175,-61.05 93.953,-20.28 108.5,-29.97 186.785,-41.62 299.344,-42.71 16.06,-0.16 35.38,1.88 42.6,16.23 13,-3.55 27.1,2.4 36.79,11.76 9.68,9.36 15.82,21.71 21.77,33.79 27.86,7.27 49.47,33.93 50.81,62.7 18.95,14.57 31.27,37.43 33.05,61.27 27.1,8.05 42.25,43.03 29.58,68.3 -5.58,33.18 -16.69,65.42 -32.73,95 18.44,3.85 25.54,28.63 18.1,45.93 -7.45,17.31 -24.13,28.52 -39.95,38.75 13.74,-3.77 25.86,13.44 22.68,27.33 -3.18,13.88 -15.58,23.53 -27.74,30.95 -17.83,10.87 -36.97,19.57 -56.88,25.85 -6.38,24.29 -37.15,52.1 -59.77,62.99 -91.228,43.96 -155.295,55.37 -272.545,-29.25"
         style="fill:#17282f;fill-opacity:1;fill-rule:nonzero;stroke:none"
         id="path362" />
      <path
         d="m 712.555,2906.29 c -1.254,19.23 -4.45,38.29 14.605,41.18 l 194.539,58.65 c 62.723,9.52 108.141,-66.18 114.991,-129.25 7.61,-70.07 14.14,-155.92 8.19,-208.73 -11.97,-106.19 -105.54,-134.71 -105.54,-134.71 l 2.426,-64.41 c -8.094,-49.55 -20.614,-105.3 -40.731,-125.14 -68.82,12.86 -181.469,164.17 -181.469,164.17 l -7.011,398.24"
         style="fill:#ba6258;fill-opacity:1;fill-rule:nonzero;stroke:none"
         id="path364" />
      <path
         d="m 934.859,2716.6 c -0.105,0.82 8.868,2.79 23.442,5.33 3.695,0.55 7.179,1.45 7.687,4.01 0.758,2.73 -0.976,6.66 -2.976,10.91 -3.903,8.83 -7.985,18.09 -12.27,27.79 -17.078,39.59 -29.625,72.21 -28.027,72.88 1.601,0.68 16.75,-30.86 33.828,-70.45 4.121,-9.77 8.062,-19.08 11.816,-27.99 1.598,-4.15 4.235,-8.84 2.586,-14.49 -0.875,-2.82 -3.511,-4.96 -5.863,-5.71 -2.348,-0.84 -4.437,-0.97 -6.269,-1.16 -14.715,-1.47 -23.864,-1.95 -23.954,-1.12"
         style="fill:#17282f;fill-opacity:1;fill-rule:nonzero;stroke:none"
         id="path366" />
      <path
         d="m 939.34,2533.43 c 0,0 -57.356,3.66 -129.535,42.72 0,0 24.457,-66.55 130.449,-74.65 l -0.914,31.93"
         style="fill:#6f3530;fill-opacity:1;fill-rule:nonzero;stroke:none"
         id="path368" />
      <path
         d="m 872.727,2878.74 c -1.254,-4.02 -15.868,-2.8 -32.84,-5.63 -17.035,-2.49 -30.574,-8.11 -33,-4.67 -1.09,1.66 1.14,5.48 6.539,9.57 5.34,4.07 13.976,8.1 24.176,9.71 10.199,1.58 19.652,0.38 25.98,-1.87 6.387,-2.24 9.68,-5.2 9.145,-7.11"
         style="fill:#17282f;fill-opacity:1;fill-rule:nonzero;stroke:none"
         id="path370" />
      <path
         d="m 1012.68,2881.14 c -2.41,-3.42 -12.59,-0.44 -24.653,-0.83 -12.07,0.04 -22.16,-3.22 -24.664,0.13 -1.105,1.63 0.356,5.01 4.668,8.34 4.254,3.32 11.489,6.2 19.785,6.32 8.293,0.12 15.604,-2.55 19.954,-5.75 4.41,-3.2 5.96,-6.54 4.91,-8.21"
         style="fill:#17282f;fill-opacity:1;fill-rule:nonzero;stroke:none"
         id="path372" />
      <path
         d="m 1084.12,2826.23 c -1.02,16.52 -6.21,33.32 -17.53,45.4 -6.2,6.61 -14.06,11.65 -19.56,18.86 -11.88,15.58 -10.21,37.23 -15.26,56.16 -6.51,24.4 -25.58,45.08 -49.368,53.56 -19.797,7.05 -42.211,6.09 -60.777,15.93 -13.727,7.27 -24.176,19.9 -38.309,26.35 -27.519,12.56 -59.429,-1.58 -85.41,-17.07 -5.14,-20.64 7.934,-38.5 20.528,-55.64 12.589,-17.14 33.031,-28.27 54.265,-29.53 16.477,-0.98 35.711,2.75 47.301,-9 12.191,-12.35 7.48,-34.13 17.504,-48.31 14.324,-20.25 46.887,-12.52 68.306,-25.03 16.54,-9.67 23.5,-29.45 31.84,-46.69 8.34,-17.25 22.74,-35.24 41.88,-34.32 2.79,16.32 5.59,32.81 4.59,49.33"
         style="fill:#17282f;fill-opacity:1;fill-rule:nonzero;stroke:none"
         id="path374" />
      <path
         d="m 839.043,2987.87 c -48.137,0.7 -96.391,-8.04 -141.227,-25.57 -13.359,-5.23 -27.179,-11.87 -34.793,-24.03 -6.691,-10.7 -7.488,-23.97 -7.335,-36.59 0.496,-39.5 16.429,-87.84 31.515,-124.36 l 49.356,-29.49 c 37.98,9.02 20.496,74.59 18.636,107.46 26.504,11.66 44.981,39.63 45.297,68.58 21.699,13.95 36.367,38.3 38.551,64"
         style="fill:#17282f;fill-opacity:1;fill-rule:nonzero;stroke:none"
         id="path376" />
      <path
         d="m 735.863,2762.02 c -1.508,22.59 -29.25,26.96 -48.66,15.3 -10.648,-6.4 -18.668,-19.04 -17.277,-43.02 3.719,-63.96 67.16,-47.04 67.168,-45.2 0,1.15 0.539,46.48 -1.231,72.92"
         style="fill:#ba6258;fill-opacity:1;fill-rule:nonzero;stroke:none"
         id="path378" />
      <path
         d="m 716.148,2712.2 c -0.293,0.19 -1.07,-0.85 -2.902,-1.82 -1.785,-0.95 -4.914,-1.71 -8.316,-0.66 -6.903,2.09 -13.215,12.49 -14.196,24 -0.5,5.81 0.399,11.42 2.196,16.13 1.679,4.79 4.511,8.24 7.879,9.04 3.339,0.98 5.867,-0.91 6.754,-2.67 0.96,-1.74 0.628,-3.04 0.976,-3.13 0.188,-0.15 1.309,1.15 0.641,3.77 -0.34,1.25 -1.176,2.71 -2.746,3.86 -1.61,1.16 -3.903,1.66 -6.258,1.27 -4.914,-0.63 -9.09,-5.42 -11.067,-10.59 -2.242,-5.21 -3.39,-11.53 -2.824,-18.06 1.156,-12.86 8.457,-24.54 17.856,-26.67 4.566,-0.92 8.242,0.66 10.093,2.28 1.887,1.7 2.145,3.14 1.914,3.25"
         style="fill:#6f3530;fill-opacity:1;fill-rule:nonzero;stroke:none"
         id="path380" />
      <path
         d="m 709.059,2685.3 -0.188,-0.85 c -0.215,-0.52 -0.219,-1.46 -0.855,-2.43 -0.879,-2.14 -3.422,-4.73 -7.411,-6.65 -3.996,-1.95 -9.429,-3.13 -15.816,-3.31 -3.199,-0.12 -6.644,0.09 -10.266,0.66 -3.617,0.58 -7.464,1.49 -11.203,3.37 l 0.77,0.39 c -1.375,-8.71 -7.113,-18.12 -16.918,-23.23 -9.664,-5.13 -23.375,-4.77 -33.727,2.98 l 1.082,0.19 c -1.863,-2.86 -4.964,-4.92 -8.379,-5.6 -3.394,-0.78 -7.031,-0.38 -10.363,0.86 -3.332,1.24 -6.39,3.6 -8.336,6.76 -1.969,3.12 -3.031,6.79 -3.258,10.53 -0.457,7.49 2.27,15.16 6.95,21.34 4.621,6.28 10.718,11.38 16.847,16.43 l 0.114,-1.48 c -5.391,3.15 -8.938,8.98 -10.164,15.15 -1.262,6.19 -0.653,12.83 1.812,18.87 2.5,6.01 6.547,11.31 11.18,15.97 4.64,4.67 9.871,8.76 15.125,12.82 l -0.098,-1.44 c -4.75,4.73 -6.773,11.81 -6.32,18.55 0.418,6.79 2.941,13.52 7.215,19.01 8.214,10.49 20.16,16.32 31.171,21.8 l -0.507,-1.1 c -3.461,14.01 0.711,29.11 10.047,39.14 9.367,10.05 23.253,14.81 36.042,13.33 l -0.984,-1.1 c -2.527,11.47 1.711,23.06 8.625,31.14 6.91,8.18 16.973,13.33 27.012,13.29 l -0.801,-0.8 c 0,11.71 6.523,21.78 14.492,27.9 8.031,6.24 17.977,8.84 26.731,7.4 l -0.731,-0.62 c 0.196,6.23 2.489,11.72 5.18,16.41 2.75,4.69 6.055,8.68 9.699,11.75 7.113,6.41 15.34,9.02 21.863,9.45 l 2.403,0.17 2.254,-0.17 c 1.445,-0.17 2.828,-0.15 4.05,-0.47 2.426,-0.68 4.563,-0.96 6.114,-1.71 1.508,-0.65 2.687,-1.15 3.566,-1.53 l 1.184,-0.57 -1.254,0.41 c -0.891,0.33 -2.086,0.78 -3.613,1.36 -1.559,0.69 -3.684,0.91 -6.086,1.53 -1.211,0.29 -2.575,0.23 -3.996,0.38 l -2.215,0.13 -2.356,-0.21 c -6.387,-0.53 -14.367,-3.17 -21.262,-9.51 -3.531,-3.04 -6.73,-6.97 -9.375,-11.57 -2.593,-4.59 -4.757,-9.99 -4.894,-15.84 l -0.02,-0.74 -0.711,0.11 c -8.39,1.31 -17.937,-1.23 -25.644,-7.3 -7.66,-5.94 -13.84,-15.66 -13.781,-26.75 l 0.004,-0.8 h -0.805 c -9.5,-0.01 -19.098,-4.94 -25.703,-12.81 -6.613,-7.77 -10.582,-18.86 -8.164,-29.63 l 0.273,-1.24 -1.262,0.14 c -12.207,1.4 -25.546,-3.21 -34.453,-12.81 -8.886,-9.55 -12.871,-24.07 -9.554,-37.39 l 0.187,-0.76 -0.695,-0.34 c -11.012,-5.48 -22.672,-11.25 -30.492,-21.26 -4.032,-5.17 -6.422,-11.56 -6.813,-17.93 -0.422,-6.34 1.457,-12.81 5.758,-17.08 l 0.773,-0.78 -0.875,-0.67 c -10.418,-7.99 -20.898,-16.43 -25.742,-27.98 -2.328,-5.66 -2.918,-11.97 -1.738,-17.77 1.144,-5.79 4.398,-11.1 9.273,-13.97 l 1.118,-0.65 -1.004,-0.83 c -6.137,-5.03 -12.129,-10.04 -16.59,-16.07 -4.528,-5.94 -7.078,-13.15 -6.688,-20.2 0.285,-6.98 4.164,-13.74 10.496,-15.91 6.008,-2.39 13.606,-1.13 16.907,4.07 l 0.433,0.69 0.653,-0.5 c 9.793,-7.42 22.968,-7.87 32.23,-3.02 9.43,4.83 15.059,13.87 16.465,22.25 l 0.117,0.72 0.645,-0.34 c 3.558,-1.83 7.324,-2.78 10.867,-3.38 3.551,-0.6 6.945,-0.85 10.094,-0.77 6.296,0.09 11.66,1.18 15.597,3 3.93,1.8 6.457,4.23 7.395,6.27 1.015,1.98 1.179,3.19 1.297,3.15"
         style="fill:#33535f;fill-opacity:1;fill-rule:nonzero;stroke:none"
         id="path382" />
      <path
         d="m 465.348,2753.69 c 0,0 -1.035,1.19 -2.41,3.86 -1.333,2.66 -3.016,6.89 -3.395,12.66 -0.387,5.67 0.594,13.11 5.227,20.07 4.507,6.85 12.628,13.19 23.168,14.75 l -0.54,-0.76 c -2.062,9.79 -0.46,21.45 5.77,31.57 3.043,5.07 7.258,9.72 12.512,13.31 5.25,3.69 11.558,5.59 17.488,8.24 2.973,1.33 5.879,2.88 8.379,4.98 2.508,2.09 4.449,4.8 5.836,7.88 2.84,6.13 3.75,13.38 7.34,19.98 7.152,13 22.98,21.75 38.949,19.34 l -1.102,-1.08 c -2.093,14.6 2.594,30.78 13.379,42.3 11.239,11.98 27.981,17.66 43.367,15.81 l -1.062,-1.06 c -1.906,18.75 8.621,36.89 23.871,44.7 15.352,7.88 33.617,5.86 46.094,-2.61 l -1.035,-0.1 c 6.582,6.56 14.558,10.76 22.343,13.65 7.832,2.82 15.578,4.63 22.95,5.28 14.726,1.69 27.703,-0.04 37.929,-2.55 10.242,-2.64 17.828,-6.23 22.535,-9.34 2.465,-1.38 4.012,-2.95 5.204,-3.78 1.136,-0.9 1.683,-1.41 1.683,-1.41 -0.105,-0.14 -2.394,1.83 -7.144,4.77 -4.75,2.95 -12.329,6.37 -22.5,8.85 -10.161,2.35 -23.024,3.94 -37.563,2.15 -7.277,-0.7 -14.898,-2.55 -22.57,-5.36 -7.621,-2.88 -15.391,-7.04 -21.715,-13.4 l -0.473,-0.48 -0.558,0.38 c -12.008,8.08 -29.68,9.94 -44.348,2.35 -14.559,-7.48 -24.664,-25.01 -22.801,-42.89 l 0.125,-1.2 -1.191,0.14 c -14.777,1.78 -30.945,-3.72 -41.719,-15.24 -10.363,-11.05 -14.902,-26.67 -12.898,-40.69 l 0.179,-1.29 -1.285,0.2 c -15.047,2.33 -30.254,-6.02 -37.039,-18.32 -3.41,-6.17 -4.351,-13.37 -7.34,-19.84 -1.461,-3.24 -3.613,-6.23 -6.328,-8.46 -2.699,-2.26 -5.758,-3.86 -8.801,-5.2 -6.086,-2.69 -12.269,-4.53 -17.277,-8.04 -5.062,-3.41 -9.156,-7.87 -12.133,-12.76 -6.082,-9.75 -7.715,-21.04 -5.797,-30.52 l 0.137,-0.67 -0.68,-0.1 c -10.117,-1.4 -18.062,-7.45 -22.504,-14.04 -4.57,-6.68 -5.636,-13.9 -5.367,-19.47 0.266,-5.66 1.809,-9.86 3.02,-12.55 1.262,-2.68 2.172,-3.96 2.09,-4.01"
         style="fill:#33535f;fill-opacity:1;fill-rule:nonzero;stroke:none"
         id="path384" />
      <path
         d="m 1077.13,2736.41 c 0.1,-0.07 -1.34,1.74 -0.24,5.25 0.55,1.69 1.78,3.59 3.74,5.3 1.94,1.76 4.76,2.96 7.9,3.97 3.12,1.07 6.75,1.94 9.98,4.18 3.22,2.23 5.78,5.89 7.2,10.26 1.5,4.38 1.9,9.37 1.61,14.64 -0.22,5.28 -1.05,10.87 -1.06,16.86 -0.12,12.13 5.02,24.45 8.13,37.81 1.52,6.69 2.14,13.89 0.86,21.04 -1.26,7.07 -4.98,14.14 -11.6,17.99 -6.5,3.99 -14.54,5.19 -22.42,7.59 -3.94,1.22 -7.95,2.79 -11.47,5.34 -3.58,2.49 -6.21,6.21 -8.09,10.11 -3.77,7.94 -4.71,16.74 -6.73,25.18 -0.97,4.23 -2.26,8.43 -4.44,12.13 -2.12,3.73 -5.48,6.6 -9.43,8.26 -5.5,2.08 -11.65,1.78 -17.69,2.42 -3.03,0.31 -6.12,0.91 -8.97,2.25 -2.84,1.32 -5.34,3.42 -7.07,5.97 -3.56,5.09 -4.85,10.98 -6.7,16.34 -1.691,5.43 -4.402,10.32 -8.031,14.43 -7.191,8.26 -17.617,13.14 -27.859,13.32 -10.262,0.25 -20.141,-3.54 -27.156,-9.84 l -0.848,-0.76 -0.473,1.04 c -7.91,17.4 -23.312,28.55 -37.992,32.79 -7.41,2.14 -14.742,2.54 -21.379,1.84 -6.64,-0.66 -12.617,-2.43 -17.574,-4.89 -10.012,-4.96 -15.637,-12.15 -18.68,-17.18 -1.601,-2.52 -2.543,-4.6 -3.171,-6.01 l -0.762,-1.58 -0.301,-0.52 0.176,0.57 0.644,1.63 c 0.551,1.45 1.426,3.58 2.973,6.18 2.93,5.15 8.527,12.59 18.684,17.79 5.035,2.57 11.113,4.44 17.886,5.19 6.762,0.77 14.262,0.43 21.879,-1.71 15.067,-4.23 30.91,-15.53 39.141,-33.41 l -1.32,0.28 c 7.312,6.62 17.582,10.6 28.316,10.38 10.746,-0.16 21.684,-5.25 29.223,-13.87 3.797,-4.26 6.704,-9.51 8.424,-15.06 1.88,-5.45 3.2,-11.21 6.47,-15.83 3.15,-4.79 8.82,-6.93 14.67,-7.41 5.84,-0.64 12.13,-0.28 18.2,-2.53 4.37,-1.82 8.11,-5.05 10.4,-9.09 2.34,-3.99 3.65,-8.37 4.64,-12.68 2.03,-8.58 2.99,-17.28 6.57,-24.79 1.79,-3.71 4.19,-7.11 7.49,-9.42 3.25,-2.37 7.05,-3.89 10.9,-5.08 7.68,-2.38 15.88,-3.58 22.82,-7.85 3.42,-2.11 6.4,-4.98 8.37,-8.4 2.03,-3.37 3.28,-7.09 3.97,-10.8 1.3,-7.47 0.61,-14.88 -0.97,-21.7 -3.25,-13.57 -8.38,-25.68 -8.33,-37.47 -0.05,-5.84 0.73,-11.44 0.92,-16.79 0.25,-5.35 -0.22,-10.53 -1.82,-15.05 -1.52,-4.52 -4.26,-8.37 -7.7,-10.68 -3.46,-2.32 -7.17,-3.12 -10.28,-4.13 -3.15,-0.96 -5.86,-2.05 -7.76,-3.69 -1.92,-1.6 -3.16,-3.4 -3.74,-4.99 -1.17,-3.3 0.09,-5.13 -0.13,-5.12"
         style="fill:#33535f;fill-opacity:1;fill-rule:nonzero;stroke:none"
         id="path386" />
      <path
         d="m 1201.29,2835.5 -0.66,1.2 c -0.44,0.89 -1.02,2.08 -1.76,3.58 -1.56,3.28 -3.78,7.93 -6.6,13.87 -2.9,6.01 -6.14,13.52 -10.79,21.73 -4.64,8.08 -11.01,17.3 -21.42,22.95 -5.18,2.81 -11.16,4.66 -17.16,7.33 -2.99,1.35 -6.01,2.93 -8.74,5.11 -2.74,2.14 -5.05,5.03 -6.53,8.35 -3.03,6.64 -3.12,14.16 -5.54,21.03 -1.24,3.39 -3.17,6.59 -6.16,8.74 -2.93,2.23 -6.57,3.54 -10.28,4.76 -3.72,1.23 -7.64,2.31 -11.32,4.33 -3.73,1.9 -6.82,5.24 -8.74,9.05 -3.84,7.77 -3.89,16.53 -5.48,24.81 -0.78,4.14 -1.9,8.3 -4.24,11.74 -2.28,3.49 -6.03,5.79 -10.16,6.67 -8.41,1.75 -17.45,-1.18 -26.81,0.29 -4.68,0.78 -9.09,3.18 -12.31,6.52 -3.26,3.33 -5.68,7.21 -7.97,11.01 -2.29,3.81 -4.44,7.62 -7.03,11.03 -2.55,3.41 -5.65,6.37 -9.4,8.05 -7.62,3.5 -16.272,1.61 -24.167,-0.21 -7.949,-1.85 -16.246,-3.83 -24.296,-2.11 -7.985,1.6 -14.809,5.7 -21.137,9.62 -6.356,3.91 -12.356,8.08 -18.824,10.45 -13.075,4.66 -26.571,4.03 -37.961,1.21 -11.492,-2.87 -20.926,-8.49 -28.114,-14.49 -7.234,-6.07 -11.914,-12.82 -15.511,-18.36 -3.25,-5.79 -5.52,-10.44 -6.645,-13.76 -0.621,-1.56 -1.109,-2.78 -1.48,-3.71 l -0.567,-1.24 0.379,1.3 c 0.324,0.95 0.758,2.2 1.305,3.79 1.008,3.38 3.172,8.11 6.355,14 3.536,5.66 8.176,12.56 15.457,18.81 7.231,6.18 16.782,11.98 28.477,14.99 11.59,2.96 25.336,3.72 38.867,-1.03 6.77,-2.45 12.809,-6.64 19.164,-10.51 6.313,-3.88 13,-7.82 20.586,-9.32 7.578,-1.6 15.531,0.29 23.527,2.17 4.028,0.91 8.145,1.88 12.458,2.18 4.281,0.3 8.824,-0.17 12.917,-2.05 4.13,-1.84 7.48,-5.07 10.14,-8.61 2.7,-3.56 4.88,-7.42 7.16,-11.2 2.27,-3.78 4.63,-7.53 7.68,-10.64 3.04,-3.12 6.95,-5.23 11.26,-5.97 8.73,-1.44 17.76,1.51 26.9,-0.31 4.53,-0.96 8.81,-3.59 11.33,-7.48 2.59,-3.82 3.74,-8.24 4.54,-12.48 1.58,-8.48 1.68,-17.12 5.26,-24.33 1.79,-3.53 4.49,-6.48 7.96,-8.28 3.42,-1.89 7.25,-2.98 11,-4.23 3.73,-1.24 7.57,-2.6 10.77,-5.06 3.29,-2.38 5.44,-5.97 6.72,-9.57 2.49,-7.26 2.56,-14.7 5.4,-20.94 2.68,-6.35 8.62,-10.16 14.42,-12.75 5.87,-2.66 11.88,-4.56 17.2,-7.48 10.73,-5.95 17.12,-15.45 21.71,-23.64 4.6,-8.34 7.74,-15.89 10.53,-21.94 2.68,-6.01 4.78,-10.71 6.27,-14.02 0.66,-1.54 1.18,-2.76 1.58,-3.67 l 0.48,-1.28"
         style="fill:#33535f;fill-opacity:1;fill-rule:nonzero;stroke:none"
         id="path388" />
      <path
         d="m 1133.19,2902.43 1.17,0.2 c 0.77,-0.01 2.01,-0.02 3.41,-0.75 2.77,-1.36 5.91,-5.42 6.36,-11.34 0.19,-2.97 -0.55,-6.16 -1.36,-9.56 -0.8,-3.4 -1.84,-7.09 -1.65,-11.08 0.19,-3.98 2.02,-7.98 4.51,-11.81 2.48,-3.85 5.64,-7.64 8.19,-12.23 2.64,-4.45 3.91,-10.63 1.61,-16.1 -2.04,-5.45 -6,-10 -7.94,-15.54 -2,-5.54 -0.82,-11.85 1.75,-17.61 2.49,-5.84 6.05,-11.51 8.5,-18.01 1.24,-3.22 2.07,-6.75 2.06,-10.38 -0.01,-3.63 -0.92,-7.26 -2.43,-10.59 -3.08,-6.68 -7.97,-12.24 -12.16,-18.25 -4.19,-5.91 -7.7,-12.85 -6.75,-20.25 0.82,-7.39 4.98,-14.15 7.74,-21.59 1.39,-3.73 2.42,-7.69 2.38,-11.76 -0.06,-4.05 -1.21,-8 -2.99,-11.5 -3.62,-7.03 -9.04,-12.5 -13.8,-18.1 -4.8,-5.57 -9.11,-11.37 -11.17,-18.11 -2.29,-6.63 -3.47,-13.63 -6.64,-19.91 -1.57,-3.12 -3.72,-6 -6.49,-8.1 -2.76,-2.14 -5.98,-3.34 -9.05,-4.36 -3.08,-1.02 -6.12,-1.87 -8.86,-3.17 -2.72,-1.34 -5.22,-3.03 -7.4,-5.03 -4.32,-4.06 -7.54,-8.94 -10.47,-13.69 -2.94,-4.77 -5.67,-9.45 -8.73,-13.65 -6.07,-8.52 -14.41,-13.96 -22.28,-16.4 -7.87,-2.56 -15.17,-2.81 -20.89,-2.01 -5.76,0.79 -10.03,2.38 -12.75,3.73 -2.72,1.36 -4.02,2.3 -4.02,2.3 0.12,0.4 5.43,-3.87 16.86,-5.28 5.64,-0.67 12.79,-0.31 20.45,2.29 7.68,2.51 15.66,7.82 21.52,16.18 2.97,4.15 5.64,8.81 8.56,13.62 2.92,4.8 6.16,9.82 10.66,14.09 2.26,2.11 4.9,3.92 7.77,5.36 2.92,1.38 6.02,2.27 9.04,3.28 3.02,1.02 6.03,2.18 8.52,4.13 2.52,1.93 4.48,4.57 5.96,7.52 2.99,5.93 4.16,12.88 6.47,19.7 2.13,7 6.68,13.16 11.49,18.75 4.8,5.65 10.11,11.08 13.52,17.73 1.67,3.31 2.72,6.94 2.78,10.66 0.03,3.72 -0.92,7.44 -2.26,11.05 -2.65,7.22 -6.93,14.06 -7.84,22.05 -0.49,3.95 0.18,7.99 1.56,11.6 1.39,3.64 3.42,6.9 5.55,9.97 4.28,6.09 9.11,11.59 12.03,17.92 1.43,3.15 2.27,6.49 2.29,9.82 0.02,3.34 -0.73,6.65 -1.91,9.76 -2.33,6.27 -5.85,11.94 -8.39,17.96 -2.63,5.9 -3.93,12.79 -1.7,18.81 2.14,5.92 6.13,10.43 8.05,15.54 2.14,5.08 1.07,10.56 -1.41,14.92 -2.41,4.44 -5.53,8.26 -8.03,12.21 -2.49,3.94 -4.4,8.18 -4.55,12.43 -0.14,4.23 0.99,7.98 1.84,11.35 0.86,3.37 1.63,6.51 1.51,9.3 -0.32,5.66 -3.23,9.65 -5.8,11.03 -2.68,1.39 -4.42,0.71 -4.39,0.9"
         style="fill:#33535f;fill-opacity:1;fill-rule:nonzero;stroke:none"
         id="path390" />
      <path
         d="m 888.906,2695.16 c 1.77,4.28 6.676,6.33 11.024,4.74 13.359,-4.9 26.718,-9.8 40.078,-14.7 l 4.465,-1.63 c -1.918,-7.06 -4.973,-17.28 -8.868,-23.47 -3.894,-6.2 -10.078,-11.37 -17.343,-12.26 -5.457,-0.66 -12.219,1.29 -16.879,4.21 -8.156,5.1 -15.942,10.76 -17.738,20.21 -1.278,6.71 2.648,16.59 5.261,22.9"
         style="fill:#6f3530;fill-opacity:1;fill-rule:nonzero;stroke:none"
         id="path392" />
      <path
         d="m 671.234,2695.76 c 0,0 -3.867,-1.15 -9.57,-5.54 -5.578,-4.3 -12.918,-12.74 -15.519,-25.55 -1.368,-6.31 -1.407,-13.58 0.507,-20.99 2.032,-7.34 5.899,-14.75 11.711,-21.06 5.731,-6.35 13.36,-11.65 22.242,-14.61 8.856,-3.03 18.993,-3.32 28.532,-0.62 9.543,2.68 18.093,7.94 24.386,14.88 6.36,6.9 10.231,15.48 11.629,23.94 2.754,17.1 -3.55,32.9 -12.589,42.08 -4.633,4.64 -9.887,7.4 -14.563,9.39 -4.711,1.97 -9.055,2.91 -12.625,3.28 -3.578,0.35 -6.391,0.12 -8.234,-0.29 -1.844,-0.42 -2.754,-0.82 -2.735,-0.87 0.039,-0.29 3.867,1.24 10.856,0.22 3.457,-0.51 7.656,-1.56 12.199,-3.6 4.5,-2.05 9.562,-4.88 13.848,-9.34 8.507,-8.94 14.367,-24.18 11.613,-40.5 -1.402,-8.07 -5.106,-16.14 -11.172,-22.69 -6.004,-6.57 -14.18,-11.59 -23.277,-14.13 -9.102,-2.57 -18.676,-2.31 -27.106,0.53 -8.465,2.79 -15.804,7.81 -21.336,13.86 -5.621,6 -9.386,13.07 -11.418,20.07 -1.898,7.04 -1.98,14.01 -0.765,20.11 2.285,12.38 9.148,20.72 14.425,25.16 5.387,4.52 9.11,6 8.961,6.27"
         style="fill:#dadbd8;fill-opacity:1;fill-rule:nonzero;stroke:none"
         id="path394" />
      <path
         d="m 883.355,2778.21 c 0.579,-7.32 -5.14,-13.84 -12.773,-14.58 -7.617,-0.74 -14.269,4.57 -14.852,11.89 -0.574,7.31 5.149,13.85 12.762,14.59 7.633,0.74 14.289,-4.59 14.863,-11.9"
         style="fill:#17282f;fill-opacity:1;fill-rule:nonzero;stroke:none"
         id="path396" />
      <path
         d="m 1016.85,2781.65 c 0.58,-7.32 -5.14,-13.84 -12.77,-14.58 -7.619,-0.74 -14.275,4.57 -14.85,11.89 -0.574,7.32 5.145,13.85 12.76,14.59 7.63,0.74 14.29,-4.58 14.86,-11.9"
         style="fill:#17282f;fill-opacity:1;fill-rule:nonzero;stroke:none"
         id="path398" />
      <path
         d="m 1011.2,2832.76 c -1.33,-2.09 -11.942,5.12 -25.575,3.6 -13.641,-1.29 -22.648,-10.54 -24.363,-8.75 -0.832,0.78 0.343,4.42 4.246,8.58 3.84,4.13 10.719,8.5 19.215,9.38 8.5,0.87 16.087,-1.99 20.647,-5.26 4.65,-3.28 6.5,-6.61 5.83,-7.55"
         style="fill:#17282f;fill-opacity:1;fill-rule:nonzero;stroke:none"
         id="path400" />
      <path
         d="m 880.926,2821.54 c -1.867,-2.14 -13.551,6.94 -29.946,6.79 -16.39,0.1 -28.324,-9.02 -30.128,-6.88 -0.883,0.95 0.972,4.81 6.183,8.93 5.11,4.11 13.863,8.13 24.086,8.15 10.219,0 18.867,-3.98 23.863,-8.07 5.086,-4.12 6.852,-7.96 5.942,-8.92"
         style="fill:#17282f;fill-opacity:1;fill-rule:nonzero;stroke:none"
         id="path402" />
      <path
         d="m 927.371,2652.83 c 0.121,-0.13 -1.137,-1.73 -4.394,-3.25 -3.215,-1.54 -8.582,-2.44 -14.875,-1.24 -6.235,1.28 -13.434,4.38 -19.59,10.4 -3.086,2.97 -5.637,7.17 -6.696,11.85 -1.082,4.7 -0.753,9.71 0.411,14.44 1.148,4.77 3.007,9.1 5.05,13.14 1.082,2.04 2.7,4.6 5.817,5.45 3.097,0.69 5.418,-0.52 7.234,-1.18 7.098,-2.87 13.742,-5.55 19.895,-8.03 11.281,-4.7 18.148,-7.88 17.933,-8.44 -0.211,-0.56 -7.461,1.61 -19.019,5.57 -6.25,2.22 -13.008,4.61 -20.219,7.17 -4.078,1.7 -5.984,1.47 -7.867,-2.48 -1.863,-3.81 -3.586,-7.92 -4.613,-12.21 -2.325,-8.62 -0.512,-17.19 4.941,-22.5 5.269,-5.46 11.809,-8.69 17.398,-10.19 5.657,-1.45 10.493,-1.11 13.621,-0.16 3.161,0.91 4.743,2.01 4.973,1.66"
         style="fill:#17282f;fill-opacity:1;fill-rule:nonzero;stroke:none"
         id="path404" />
      <path
         d="m 1194.61,3099.55 c -0.33,-0.48 -5.35,5.28 -17.46,10.11 -6.03,2.27 -13.85,4.27 -23.01,4.07 -9.09,-0.09 -19.61,-2.39 -29.28,-8.43 l -1.4,-0.87 -0.83,1.44 c -6.19,10.65 -17.71,19.72 -32.05,23.53 -14.14,3.88 -31.48,2.61 -45,-7.12 l -1.68,-1.21 -1.21,1.66 c -12.04,16.48 -32.02,29.37 -54.698,33.15 -17.429,2.99 -35.066,-0.25 -49.82,-7.51 -14.809,-7.24 -26.781,-18.33 -34.652,-30.75 l -0.555,-0.88 -1.039,-0.04 c -19.496,-0.75 -37.223,-5.73 -51.613,-12.8 -14.559,-6.84 -25.86,-15.57 -34.368,-23.49 -16.965,-16.14 -22.867,-28.84 -23.519,-28.37 -0.094,0.05 0.254,0.83 1.019,2.3 0.797,1.44 1.868,3.65 3.59,6.33 3.391,5.39 8.875,13.04 17.285,21.42 8.422,8.31 19.774,17.47 34.567,24.73 14.621,7.47 32.777,12.84 52.91,13.79 l -1.594,-0.92 c 8.149,13.12 20.621,24.81 36.106,32.47 15.41,7.67 34.035,11.14 52.39,7.99 23.851,-3.98 44.741,-17.55 57.341,-34.97 l -2.9,0.45 c 14.88,10.56 33.47,11.66 48.44,7.4 15.19,-4.21 27.39,-14.05 33.82,-25.6 l -2.23,0.57 c 10.4,6.26 21.49,8.4 30.96,8.27 9.55,-0.04 17.58,-2.38 23.69,-4.98 6.13,-2.66 10.35,-5.75 13.05,-7.96 2.61,-2.33 3.84,-3.69 3.74,-3.78"
         style="fill:#17282f;fill-opacity:1;fill-rule:nonzero;stroke:none"
         id="path406" />
      <path
         d="m 761.09,3121.86 c 0,0 -5.207,-3.16 -15.977,-3.84 -10.429,-0.65 -27.343,1.67 -42.07,15.06 -7.164,6.66 -13.168,16.25 -15.609,27.64 -2.473,11.32 -1.821,24.37 3.543,36.5 5.257,12.16 15.925,22.72 29.382,28.14 13.348,5.51 29.493,6.4 44.016,0.37 l -2.492,-0.61 c 5.824,7.02 14.605,11.98 24.078,13.72 7.832,1.52 15.98,0.8 23.312,-1.98 7.325,-2.89 13.54,-8.08 17.723,-14.38 8.442,-12.55 9.797,-28.88 3.649,-41.56 l -2.875,2.6 c 10.535,6.3 23.304,5.35 32.949,0.67 9.902,-4.59 16.926,-13.53 19.453,-22.89 5.351,-19.02 -2.692,-36.74 -12.738,-45.99 -10.157,-9.65 -21.079,-13.08 -28.231,-14.63 -3.637,-0.78 -6.496,-1.01 -8.418,-1.12 -1.926,-0.05 -2.922,-0.02 -2.93,0.1 -0.031,0.33 3.989,0.41 11.043,2.31 6.915,1.9 17.368,5.66 26.79,15.1 9.324,9.01 16.402,25.84 11.222,43.24 -2.469,8.57 -8.785,16.37 -17.801,20.48 -8.796,4.17 -20.23,4.78 -29.222,-0.72 l -5.84,-3.56 2.961,6.16 c 5.402,11.26 4.129,26.16 -3.531,37.43 -3.797,5.65 -9.282,10.18 -15.77,12.74 -6.519,2.46 -13.867,3.13 -20.945,1.75 -8.567,-1.58 -16.43,-6.05 -21.567,-12.22 l -1.023,-1.23 -1.473,0.62 c -13.277,5.56 -28.312,4.84 -40.773,-0.24 -12.578,-5 -22.438,-14.63 -27.442,-25.87 -5.109,-11.24 -5.886,-23.53 -3.703,-34.21 2.157,-10.77 7.614,-19.82 14.254,-26.25 13.672,-12.97 29.871,-15.76 40.024,-15.6 10.472,0.17 15.91,2.75 16.031,2.27"
         style="fill:#17282f;fill-opacity:1;fill-rule:nonzero;stroke:none"
         id="path408" />
      <path
         d="m 456.953,2955.57 c -0.113,-0.04 -0.535,0.78 -1.246,2.42 -0.734,1.63 -1.613,4.14 -2.461,7.47 -1.656,6.62 -3.117,16.86 -0.707,29.4 2.363,12.35 8.902,27.29 22.371,38.67 13.172,11.29 32.86,18.92 53.953,16.42 l -2.125,-1.15 c 8.125,16.99 23.446,32.36 43.047,40.63 14.559,6.18 30.434,7.56 44.883,5.2 14.48,-2.39 27.625,-8.35 37.977,-16.45 l -2.141,0.17 c 15.328,8.11 31.449,11.22 45.519,10.85 14.141,-0.09 26.27,-3.43 35.645,-7.25 9.402,-3.91 16.117,-8.42 20.398,-11.79 4.219,-3.47 6.243,-5.58 6.122,-5.71 -0.45,-0.68 -8.731,8.17 -27.379,15.31 -9.266,3.43 -21.121,6.37 -34.801,6.19 -13.617,0.11 -29.07,-3.14 -43.617,-11.03 l -1.129,-0.61 -1.016,0.78 c -9.91,7.59 -22.465,13.16 -36.246,15.37 -13.766,2.17 -28.758,0.82 -42.535,-5.02 -18.582,-7.84 -33.203,-22.41 -41.004,-38.44 l -0.648,-1.34 -1.477,0.19 c -19.727,2.48 -38.504,-4.5 -51.16,-15.03 -12.918,-10.57 -19.461,-24.63 -22.102,-36.49 -2.676,-12.01 -1.676,-22 -0.472,-28.58 1.277,-6.61 2.664,-10.06 2.351,-10.18"
         style="fill:#17282f;fill-opacity:1;fill-rule:nonzero;stroke:none"
         id="path410" />
      <path
         d="m 1595.87,1769.77 -36.03,54.45 -57.82,29.01 -2.17,1.58 c -18.9,13.75 -42.99,18.2 -65.59,12.19 -23.54,-6.26 -54.96,-14.07 -82.21,-18.72 l -62.24,17.02 v -121.45 l 313.89,19.83 -7.83,6.09"
         style="fill:#ba6258;fill-opacity:1;fill-rule:nonzero;stroke:none"
         id="path412" />
      <path
         d="m 1593.69,1773.06 c 0.33,0.43 -4.76,5.03 -13.26,12.12 -8.5,7.1 -20.4,16.69 -33.7,27.09 -4.31,3.35 -8.49,6.59 -12.45,9.66 l -0.36,0.28 -0.44,0.09 c -12.86,2.41 -24.04,4.36 -32.03,5.59 -7.99,1.24 -12.78,1.76 -12.86,1.31 -0.09,-0.44 4.54,-1.77 12.4,-3.66 7.86,-1.88 18.94,-4.31 31.77,-6.94 l -0.8,0.36 c 3.94,-3.1 8.08,-6.37 12.37,-9.76 13.3,-10.4 25.47,-19.65 34.4,-26.19 8.93,-6.54 14.62,-10.37 14.96,-9.95"
         style="fill:#6f3530;fill-opacity:1;fill-rule:nonzero;stroke:none"
         id="path414" />
      <path
         d="m 1569.22,1762.46 c 0.52,0.95 -19.7,13.15 -45.15,27.25 -3.8,2.09 -7.47,4.1 -11.01,6.04 l -0.38,0.21 -0.42,0.03 c -23.04,1.26 -40.12,1.59 -40.18,0.67 -0.06,-0.91 16.92,-2.77 39.94,-4.46 l -0.79,0.24 c 3.51,-1.97 7.17,-4.02 10.95,-6.14 25.45,-14.1 46.51,-24.78 47.04,-23.84"
         style="fill:#6f3530;fill-opacity:1;fill-rule:nonzero;stroke:none"
         id="path416" />
      <path
         d="m 1961.23,2113.36 c -10.51,5.91 -23.78,3.06 -30.95,-6.64 l -252.8,-342.39 -400.02,-5.42 c -15.98,-0.96 -35.36,-33.25 -21.04,-48.88 l 451.72,6.17 260.78,362.35 c 8.33,11.58 4.74,27.82 -7.69,34.81"
         style="fill:#dadbd8;fill-opacity:1;fill-rule:nonzero;stroke:none"
         id="path418" />
      <path
         d="m 749.453,2509.9 c -21.566,-2.41 -51.644,-16.29 -67.226,-31.39 -25.422,-24.64 -43.883,-58.37 -53.813,-88.17 -13.355,-40.06 -7.367,-198.12 -7.367,-243.9 0,-45.79 11.644,-217.79 17.402,-246.4 5.758,-28.62 -3.722,-71.16 -16.984,-98.85 -23.789,-49.64 13.308,-75.09 13.308,-75.09 l 490.867,3.68 -1.97,18.31 c -3.37,31.9 8.51,64.4 -3.64,94.09 -12.72,31.08 -26.98,80.21 -22.58,137.54 6.26,81.77 30.7,137.6 15.69,185.04 -22.89,72.37 -98.48,236.95 -189.812,307.25 0,0 -72.019,15.42 -88.305,21.12 -37.07,12.99 -56.679,19.98 -85.57,16.77"
         style="fill:#f2575d;fill-opacity:1;fill-rule:nonzero;stroke:none"
         id="path420" />
      <path
         d="m 1326.58,1879.39 -419.373,87.56 -10.809,364.08 c 0,0 -14.675,148.32 -89.011,162.1 l -178.973,-222.8 c 9.996,-112.3 0.891,-324.76 52.488,-406.71 51.602,-81.94 101.797,-147.6 228.864,-141.77 127.064,5.82 407.144,8.5 407.144,8.5 l 9.67,149.04"
         style="fill:#f2575d;fill-opacity:1;fill-rule:nonzero;stroke:none"
         id="path422" />
      <path
         d="m 908.035,1965.53 c 1,-0.79 -9.062,-13.91 -17.515,-32.21 -8.598,-18.24 -12.188,-34.37 -13.438,-34.12 -1.066,0.1 0.727,17.07 9.59,35.91 8.746,18.89 20.598,31.17 21.363,30.42"
         style="fill:#17282f;fill-opacity:1;fill-rule:nonzero;stroke:none"
         id="path424" />
      <path
         d="m 1006.18,1946.29 -98.973,20.66 c 0,0 3.332,38.19 0.828,69.91 -2.414,30.61 -4.191,61.37 -5.644,92.27 l -5.993,201.9 c 0,0 -0.406,4.07 -1.414,10.92 40.196,-128.78 32.286,-323.37 111.196,-395.66"
         style="fill:#cc4341;fill-opacity:1;fill-rule:nonzero;stroke:none"
         id="path426" />
      <path
         d="m 1006.18,1946.29 -98.973,20.66 v 0 l 98.973,-20.66 c 0,-0.01 -0.01,0 0,0 m -103.789,182.84 c -3.379,71.83 -5.02,144.4 -8.883,217.46 0.5,-1.54 0.992,-3.08 1.476,-4.64 1.008,-6.85 1.414,-10.92 1.414,-10.92 l 5.993,-201.9"
         style="fill:#cc4341;fill-opacity:1;fill-rule:nonzero;stroke:none"
         id="path428" />
      <path
         d="m 884.203,2392.51 c 0,0 3.504,-9.85 7.352,-29.2 1.906,-9.67 3.797,-21.73 5.105,-36.04 1.371,-14.32 1.582,-30.86 2.281,-49.38 2.383,-74.29 5.801,-180.92 9.965,-310.89 l -1.351,1.61 c 120.205,-24.98 263.515,-54.77 419.455,-87.18 l 1.77,-0.36 -0.12,-1.81 c -3.08,-47.7 -6.33,-97.89 -9.63,-149.04 l -0.13,-1.97 -1.97,-0.02 c -16.16,-0.18 -33.52,-0.38 -50.99,-0.58 -72.89,-0.9 -144.04,-2.01 -212.75,-3.5 -34.35,-0.73 -68.096,-1.61 -101.124,-2.7 -32.898,-0.84 -65.562,-3.95 -97.179,1.02 -15.813,1.96 -31.012,6.47 -45.602,11.74 -14.316,6.01 -28.07,13.02 -40.254,22 -24.691,17.55 -43.859,40.21 -60.5,62.85 -8.164,11.48 -15.91,22.95 -23.164,34.41 l -5.437,8.55 c -1.7,2.91 -3.211,5.96 -4.813,8.91 -1.578,2.97 -3.148,5.92 -4.707,8.86 -1.207,3.09 -2.41,6.17 -3.605,9.23 -9.489,24.49 -14.996,49.16 -18.739,72.77 -7.836,47.26 -10.211,90.53 -12.273,128.41 -1.887,37.91 -2.734,70.59 -3.668,97.27 -0.844,26.7 -1.805,47.41 -2.527,61.45 -0.43,6.91 -0.758,12.22 -0.993,15.96 -0.199,3.6 -0.191,5.45 -0.191,5.45 0,0 0.285,-1.83 0.625,-5.42 0.332,-3.73 0.801,-9.03 1.414,-15.94 0.996,-14.03 2.227,-34.74 3.324,-61.43 1.188,-26.69 2.278,-59.35 4.387,-97.22 2.285,-37.82 4.875,-81.03 12.863,-128.03 3.813,-23.48 9.395,-47.97 18.821,-72.06 1.183,-3 2.375,-6.03 3.574,-9.07 1.535,-2.86 3.078,-5.75 4.629,-8.64 1.578,-2.88 3.047,-5.83 4.73,-8.71 l 5.449,-8.5 c 7.274,-11.42 15.012,-22.8 23.153,-34.18 16.574,-22.43 35.562,-44.73 59.816,-61.89 11.969,-8.78 25.449,-15.6 39.481,-21.47 14.312,-5.13 29.211,-9.53 44.781,-11.43 31.027,-4.84 63.391,-1.73 96.465,-0.84 33.054,1.14 66.804,2.05 101.174,2.81 68.72,1.55 139.89,2.68 212.79,3.59 17.47,0.2 34.84,0.39 51,0.57 l -2.09,-1.98 c 3.33,51.15 6.59,101.34 9.7,149.04 l 1.65,-2.17 c -155.87,32.68 -299.13,62.72 -419.291,87.92 l -1.316,0.28 -0.035,1.34 c -3.555,129.99 -6.469,236.63 -8.5,310.93 -0.555,18.55 -0.613,35.06 -1.828,49.32 -1.149,14.27 -2.875,26.3 -4.617,35.97 -1.731,9.68 -3.426,17.01 -4.618,21.93 -0.574,2.36 -1.023,4.19 -1.355,5.56 -0.297,1.25 -0.43,1.89 -0.387,1.9"
         style="fill:#17282f;fill-opacity:1;fill-rule:nonzero;stroke:none"
         id="path430" />
      <path
         d="m 1557.35,985.781 -62.26,-458.722 162.88,-26.707 115.88,407.027 -216.5,78.402"
         style="fill:#ba6258;fill-opacity:1;fill-rule:nonzero;stroke:none"
         id="path432" />
      <path
         d="m 1063.46,1690.62 c 0,0 595.37,39.16 718.96,19.46 74.72,-11.92 139.1,-128.66 98.39,-198.81 -19.27,-33.2 -49.61,-136.61 -49.61,-136.61 l -320,72.97 -447.74,242.99"
         style="fill:#33535f;fill-opacity:1;fill-rule:nonzero;stroke:none"
         id="path434" />
      <path
         d="m 1511.2,1374.66 -128.91,-196.69 151.72,-98.29 164.56,252.25 -187.37,42.73"
         style="fill:#ba6258;fill-opacity:1;fill-rule:nonzero;stroke:none"
         id="path436" />
      <path
         d="m 646.527,1726.63 c 0,0 -62.929,-277.28 38.629,-386.31 72.321,-77.63 249.844,-69.45 399.624,-69.45 151.76,0 502.15,8.24 502.15,8.24 0,0 -15.92,-97.52 -27.56,-208.51 -11.66,-111.268 -14.04,-181.139 -14.04,-181.139 L 1768.6,870.84 c 0,0 124.39,378.63 143.53,453.6 19.12,74.87 12.67,175.7 -53.5,213.08 -56.06,31.66 -498.29,154.28 -710,172.51 l -22.99,19.75 -479.113,-3.15"
         style="fill:#33535f;fill-opacity:1;fill-rule:nonzero;stroke:none"
         id="path438" />
      <path
         d="m 1696.15,1370.28 c 0.12,-0.77 -8.65,-1.99 -21.89,-6.74 -6.64,-2.31 -14.26,-5.83 -22.33,-10.37 -7.97,-4.71 -16.35,-10.56 -24.34,-17.67 -7.9,-7.22 -14.57,-14.95 -20.09,-22.4 -5.35,-7.56 -9.63,-14.78 -12.61,-21.14 -6.08,-12.69 -8.2,-21.28 -8.96,-21.08 -0.28,0.07 0.05,2.25 0.92,6.17 0.77,3.94 2.55,9.5 5.31,16.14 2.7,6.68 6.82,14.26 12.15,22.17 5.49,7.79 12.29,15.85 20.44,23.29 8.23,7.33 16.95,13.27 25.26,17.93 8.42,4.49 16.38,7.81 23.3,9.81 6.89,2.06 12.6,3.26 16.6,3.62 3.99,0.45 6.2,0.56 6.24,0.27"
         style="fill:#17282f;fill-opacity:1;fill-rule:nonzero;stroke:none"
         id="path440" />
      <path
         d="m 1669.62,1598.92 c -1.01,0.53 3.66,11.25 11.76,23.11 8.07,11.88 16.33,20.16 17.19,19.41 0.92,-0.77 -5.76,-10.13 -13.68,-21.8 -7.96,-11.65 -14.21,-21.29 -15.27,-20.72"
         style="fill:#17282f;fill-opacity:1;fill-rule:nonzero;stroke:none"
         id="path442" />
      <path
         d="m 1921.52,1429.83 c -0.07,-0.01 -0.29,0.71 -0.66,2.14 -0.39,1.67 -0.89,3.76 -1.51,6.35 -1.33,5.58 -3.39,13.78 -6.72,24.12 -3.36,10.32 -8.13,22.81 -15.86,36.09 -7.75,13.04 -18.81,27.64 -36.01,36.24 -35.31,16.05 -79.26,31.33 -128.68,45.73 -49.37,14.77 -103.82,30.42 -161.31,45.62 -114.97,30.53 -220.5,52.38 -297.38,65.13 -38.42,6.5 -69.65,10.94 -91.24,13.94 -10.55,1.43 -18.87,2.56 -24.87,3.38 -2.64,0.4 -4.77,0.72 -6.46,0.98 -1.45,0.25 -2.19,0.41 -2.19,0.48 0.01,0.08 0.77,0.06 2.24,-0.05 1.7,-0.15 3.85,-0.33 6.5,-0.56 6.03,-0.63 14.39,-1.49 24.99,-2.59 21.66,-2.5 52.98,-6.49 91.51,-12.61 77.09,-12.01 182.89,-33.43 297.99,-64 57.54,-15.21 112.01,-30.99 161.35,-45.97 49.47,-14.65 93.36,-30.22 128.9,-46.8 17.92,-9.21 29.01,-24.36 36.71,-37.73 7.67,-13.62 12.25,-26.32 15.39,-36.78 3.11,-10.49 4.91,-18.79 5.98,-24.44 0.45,-2.63 0.81,-4.75 1.1,-6.45 0.23,-1.45 0.3,-2.2 0.23,-2.22"
         style="fill:#17282f;fill-opacity:1;fill-rule:nonzero;stroke:none"
         id="path444" />
      <path
         d="m 1670.63,512.25 5.42,19.891 c -69.14,7.238 -130.82,32.871 -179.77,77.48 L 1441.09,490.309 1809.15,326.66 c 13.9,35.192 -138.52,185.59 -138.52,185.59"
         style="fill:#17282f;fill-opacity:1;fill-rule:nonzero;stroke:none"
         id="path446" />
      <path
         d="m 1441.09,490.309 13.48,29.14 348.57,-168.14 c 0,0 13.13,-14.227 6.01,-24.649 l -368.06,163.649"
         style="fill:#dadbd8;fill-opacity:1;fill-rule:nonzero;stroke:none"
         id="path448" />
      <path
         d="m 1665.71,514.559 c -0.88,-1.719 -10.23,1.48 -21.71,-0.219 -11.53,-1.399 -19.65,-6.949 -20.97,-5.531 -1.5,1.082 6.08,10.351 20.02,12.171 13.92,1.93 23.81,-4.988 22.66,-6.421"
         style="fill:#dadbd8;fill-opacity:1;fill-rule:nonzero;stroke:none"
         id="path450" />
      <path
         d="m 1522.49,527.34 c -2.53,-5.149 -8.87,-7.328 -14.16,-4.871 -5.3,2.472 -7.54,8.64 -5,13.801 2.53,5.152 8.87,7.332 14.16,4.871 5.29,-2.469 7.53,-8.641 5,-13.801"
         style="fill:#dadbd8;fill-opacity:1;fill-rule:nonzero;stroke:none"
         id="path452" />
      <path
         d="m 1663.5,517.012 c -0.1,-0.321 -3.07,0.109 -8.34,1.519 -5.11,1.539 -13.32,3.688 -20.66,11.02 -1.8,1.801 -3.44,3.949 -4.82,6.34 -1.39,2.351 -2.8,5.007 -3.09,8.468 -0.48,3.493 2.06,7.789 5.77,9.09 3.6,1.582 7.89,0.992 11.16,-0.5 12.69,-6.07 22.45,-19.898 22.76,-35.918 l -5.43,0.778 c 0.88,2.742 2.1,5.57 3.63,8.261 8.31,14.95 25.11,22.989 39.9,22.559 1.86,-0.039 4.01,-0.129 6.19,-1.207 2.19,-1.063 3.79,-3.32 4.17,-5.453 0.78,-4.25 -0.77,-7.817 -2.65,-10.629 -3.77,-5.57 -9.1,-9.07 -14.1,-11.32 -10.3,-4.579 -19.48,-3.68 -25.27,-3.77 -5.94,0.18 -9.19,0.391 -9.22,0.762 -0.03,0.379 3.26,0.879 9.16,1.347 5.81,0.7 14.62,0.532 23.61,5.11 4.44,2.25 8.96,5.562 11.91,10.281 1.47,2.211 2.29,5.02 1.78,7.18 -0.46,2.062 -2.2,2.75 -5.6,2.699 -13.12,0.09 -27.71,-7.07 -35.01,-20.199 -1.35,-2.36 -2.42,-4.84 -3.2,-7.231 -0.45,-1.418 -2.01,-2.219 -3.47,-1.777 -1.18,0.348 -1.94,1.43 -1.96,2.57 -0.08,13.758 -8.82,26.27 -19.29,31.52 -4.98,2.668 -10.81,0.379 -10.37,-3.953 0.39,-4.457 3.44,-9.278 6.26,-12.528 6.07,-6.793 13.67,-9.519 18.52,-11.59 4.98,-1.972 7.78,-3.07 7.66,-3.429"
         style="fill:#dadbd8;fill-opacity:1;fill-rule:nonzero;stroke:none"
         id="path454" />
      <path
         d="m 1693.96,489.02 c -0.32,-1.231 -11.32,1.671 -24.35,-1.711 -13.1,-3.118 -21.46,-10.829 -22.31,-9.887 -0.96,0.558 6.85,10.508 21.29,14.008 14.39,3.672 25.95,-1.469 25.37,-2.41"
         style="fill:#dadbd8;fill-opacity:1;fill-rule:nonzero;stroke:none"
         id="path456" />
      <path
         d="m 1714.48,465.66 c -0.1,-1.25 -10.08,-0.941 -21.56,-4.43 -11.53,-3.328 -19.73,-9.019 -20.5,-8.031 -0.78,0.77 6.82,8.461 19.29,12.102 12.44,3.738 23.01,1.429 22.77,0.359"
         style="fill:#dadbd8;fill-opacity:1;fill-rule:nonzero;stroke:none"
         id="path458" />
      <path
         d="m 1562.87,1101.84 8.69,18.69 c -66.93,18.78 -123.42,54.43 -164.15,106.64 l -74.5,-108.31 335.26,-223.278 c 19.62,32.348 -105.3,206.258 -105.3,206.258"
         style="fill:#17282f;fill-opacity:1;fill-rule:nonzero;stroke:none"
         id="path460" />
      <path
         d="m 1332.91,1118.86 18.2,26.46 315.28,-224.429 c 0,0 10.55,-16.243 1.78,-25.309 l -335.26,223.278"
         style="fill:#dadbd8;fill-opacity:1;fill-rule:nonzero;stroke:none"
         id="path462" />
      <path
         d="m 1558.41,1104.95 c -1.16,-1.56 -9.84,3.18 -21.44,3.44 -11.6,0.56 -20.54,-3.55 -21.6,-1.92 -1.3,1.31 7.74,9.17 21.78,8.62 14.05,-0.44 22.63,-8.92 21.26,-10.14"
         style="fill:#ffffff;fill-opacity:1;fill-rule:nonzero;stroke:none"
         id="path464" />
      <path
         d="m 1419.38,1141.66 c -3.36,-4.65 -9.98,-5.74 -14.78,-2.42 -4.8,3.32 -5.97,9.79 -2.6,14.44 3.36,4.66 9.98,5.74 14.78,2.42 4.8,-3.32 5.97,-9.79 2.6,-14.44"
         style="fill:#dadbd8;fill-opacity:1;fill-rule:nonzero;stroke:none"
         id="path466" />
      <path
         d="m 1556.64,1107.73 c -0.15,-0.3 -3,0.63 -7.96,2.91 -4.78,2.37 -12.51,5.88 -18.51,14.33 -1.47,2.09 -2.72,4.48 -3.69,7.07 -0.97,2.55 -1.91,5.41 -1.61,8.86 0.11,3.53 3.33,7.34 7.21,7.99 3.82,0.96 7.95,-0.35 10.92,-2.37 11.48,-8.12 18.78,-23.39 16.38,-39.23 l -5.22,1.68 c 1.33,2.55 3.01,5.13 4.98,7.53 10.7,13.33 28.62,18.43 43.13,15.52 1.82,-0.35 3.92,-0.81 5.89,-2.24 1.98,-1.41 3.18,-3.91 3.19,-6.07 0.06,-4.32 -2.08,-7.58 -4.4,-10.03 -4.65,-4.86 -10.5,-7.41 -15.81,-8.78 -10.92,-2.79 -19.82,-0.36 -25.53,0.53 -5.83,1.17 -9,1.94 -8.97,2.3 0.04,0.38 3.36,0.32 9.25,-0.21 5.85,-0.29 14.51,-1.93 24.14,1.07 4.76,1.46 9.77,3.96 13.48,8.12 1.81,1.93 3.09,4.56 2.96,6.78 -0.11,2.11 -1.71,3.08 -5.07,3.61 -12.92,2.29 -28.51,-2.31 -37.91,-14.02 -1.73,-2.1 -3.2,-4.37 -4.37,-6.59 -0.69,-1.33 -2.35,-1.85 -3.72,-1.17 -1.1,0.54 -1.67,1.73 -1.5,2.86 2.23,13.57 -4.27,27.38 -13.71,34.32 -4.46,3.47 -10.59,2.19 -10.88,-2.15 -0.37,-4.46 1.82,-9.72 4.05,-13.41 4.85,-7.7 11.88,-11.68 16.31,-14.53 4.58,-2.79 7.15,-4.34 6.97,-4.68"
         style="fill:#ffffff;fill-opacity:1;fill-rule:nonzero;stroke:none"
         id="path468" />
      <path
         d="m 1581.95,1075.01 c -0.52,-1.16 -10.88,3.55 -24.28,2.42 -13.44,-0.87 -22.98,-7.07 -23.66,-6 -0.86,0.72 8.52,9.21 23.34,10.23 14.8,1.19 25.34,-5.82 24.6,-6.65"
         style="fill:#ffffff;fill-opacity:1;fill-rule:nonzero;stroke:none"
         id="path470" />
      <path
         d="m 1598.25,1048.53 c -0.31,-1.21 -10.09,0.77 -22,-0.73 -11.93,-1.35 -20.97,-5.58 -21.56,-4.47 -0.64,0.89 8.15,7.19 21.06,8.68 12.89,1.59 22.92,-2.46 22.5,-3.48"
         style="fill:#ffffff;fill-opacity:1;fill-rule:nonzero;stroke:none"
         id="path472" />
    </g>
  </g>
</svg>
