<?xml version="1.0" standalone="no"?>
<!DOCTYPE svg PUBLIC "-//W3C//DTD SVG 20010904//EN"
 "http://www.w3.org/TR/2001/REC-SVG-20010904/DTD/svg10.dtd">
<svg version="1.0" xmlns="http://www.w3.org/2000/svg"
 width="458.000000pt" height="184.000000pt" viewBox="0 0 458.000000 184.000000"
 preserveAspectRatio="xMidYMid meet">

<g transform="translate(0.000000,184.000000) scale(0.100000,-0.100000)"
fill="#D34152" stroke="none">
<path d="M4428 1315 l-3 -390 -37 -3 -38 -3 0 -109 0 -109 38 -3 37 -3 3 -90
c2 -49 0 -105 -3 -123 -5 -28 -10 -32 -39 -32 l-33 0 -6 -74 c-6 -81 -29 -136
-74 -177 -45 -42 -83 -51 -185 -47 -124 4 -181 32 -368 182 l-145 116 -59 0
c-53 0 -57 -1 -45 -17 35 -42 342 -290 409 -329 100 -59 154 -74 270 -74 88 0
102 3 158 31 70 35 115 88 137 163 22 73 22 1418 0 1456 -12 22 -15 -22 -17
-365z"/>
<path d="M402 1478 l-143 -183 678 -5 c488 -4 688 -9 713 -18 96 -33 136 -88
127 -176 -4 -44 -10 -55 -45 -86 -74 -66 -48 -64 -793 -67 l-676 -4 -6 -127
c-4 -70 -7 -236 -7 -369 l0 -243 231 0 231 0 -2 98 c-2 53 -2 136 -1 185 l1
87 305 0 304 0 215 -185 216 -185 330 0 330 0 -248 206 c-136 114 -253 212
-261 219 -11 11 -1 19 57 50 77 40 181 139 225 215 52 90 70 218 46 332 -42
199 -197 332 -476 410 -75 21 -100 22 -643 25 l-565 4 -143 -183z"/>
<path d="M2672 1644 c-43 -22 -79 -66 -92 -112 -6 -24 -10 -270 -10 -684 l0
-648 228 0 227 0 -3 402 -3 402 23 -20 c13 -11 93 -79 178 -150 85 -71 274
-229 420 -352 154 -130 288 -234 320 -250 79 -39 200 -44 249 -10 19 13 44 39
55 58 21 34 21 50 24 708 l3 672 -226 0 -225 0 -2 -401 -3 -402 -435 372
c-278 237 -455 381 -490 399 -70 34 -186 42 -238 16z"/>
<path d="M2346 1365 c27 -81 34 -132 34 -245 0 -69 -5 -142 -11 -162 -9 -36
-12 -38 -52 -38 -42 0 -43 -1 -81 -66 -21 -37 -56 -86 -78 -110 l-40 -43 54
-3 53 -3 -38 -41 c-36 -40 -36 -41 -17 -59 19 -17 20 -16 47 16 15 18 46 54
67 79 22 25 58 83 80 130 40 84 41 85 44 220 5 151 -6 219 -43 295 -14 28 -22
41 -19 30z"/>
<path d="M225 1141 c3 -6 20 -13 38 -16 18 -3 333 -6 700 -8 601 -2 665 0 635
13 -28 13 -134 15 -706 18 -448 2 -672 -1 -667 -7z"/>
<path d="M120 810 l0 -110 34 0 34 0 7 79 c4 44 4 93 0 110 -6 27 -11 31 -41
31 l-34 0 0 -110z"/>
<path d="M2435 889 c-4 -17 -4 -66 0 -110 l7 -79 34 0 34 0 0 110 0 110 -34 0
c-30 0 -35 -4 -41 -31z"/>
<path d="M3080 793 c0 -38 4 -74 8 -81 6 -9 33 -12 97 -10 l88 3 -91 78 c-50
42 -93 77 -96 77 -3 0 -6 -30 -6 -67z"/>
<path d="M3160 572 l0 -122 -34 0 c-43 0 -46 -11 -46 -153 0 -60 -5 -117 -10
-128 -10 -18 -24 -19 -270 -19 -295 0 -280 -5 -280 87 0 26 -3 85 -7 131 l-6
82 -33 0 c-32 0 -34 -2 -34 -35 0 -19 -3 -35 -7 -35 -5 0 -28 16 -52 35 -39
32 -50 35 -105 35 l-61 -1 40 -36 c22 -19 74 -64 115 -100 78 -67 94 -99 70
-143 -10 -20 -19 -20 -363 -20 l-352 0 -184 150 -185 150 -292 0 -291 0 -7
-61 c-3 -34 -6 -93 -6 -131 0 -116 20 -108 -280 -108 -300 0 -280 -8 -280 108
0 38 -3 97 -6 131 l-7 61 -33 0 -34 0 0 -147 c0 -172 8 -193 87 -243 l47 -30
263 0 c293 0 308 3 339 63 12 23 19 69 23 159 3 69 10 130 14 135 10 9 349 17
383 9 12 -3 105 -77 208 -164 102 -87 205 -168 229 -180 43 -22 45 -22 717
-21 648 0 675 1 705 19 52 32 55 50 55 305 0 218 1 236 19 254 19 19 18 20
-15 52 l-34 33 0 -122z"/>
</g>
</svg>
